<?xml version="1.0" encoding="UTF-8"?>
<!DOCTYPE svg PUBLIC "-//W3C//DTD SVG 1.1//EN" "http://www.w3.org/Graphics/SVG/1.1/DTD/svg11.dtd">
<!-- Creator: CorelDRAW X7 -->
<svg xmlns="http://www.w3.org/2000/svg" xml:space="preserve" width="6.70648in" height="1.47832in" version="1.1" style="shape-rendering:geometricPrecision; text-rendering:geometricPrecision; image-rendering:optimizeQuality; fill-rule:evenodd; clip-rule:evenodd"
viewBox="0 0 6903 1522"
 xmlns:xlink="http://www.w3.org/1999/xlink">
 <defs>
  <style type="text/css">
   <![CDATA[
    .fil0 {fill:#0F3B59}
    .fil1 {fill:#0F3B59;fill-rule:nonzero}
   ]]>
  </style>
 </defs>
 <g id="Layer_x0020_1">
  <metadata id="CorelCorpID_0Corel-Layer"/>
  <g id="_2670521631888">
   <g>
    <path class="fil0" d="M773 546c-26,8 -45,22 -59,41 -26,38 -46,115 -60,231 -14,116 -9,215 15,297 6,20 17,35 35,44 18,9 36,11 54,5 20,-5 35,-16 47,-31 17,-23 33,-67 49,-132 15,-65 24,-134 24,-207 1,-74 -6,-138 -22,-194 -7,-23 -19,-39 -35,-48 -15,-9 -31,-11 -48,-6zm-468 98c20,-9 39,-10 57,-4 18,7 30,20 36,38 5,19 3,38 -7,58 -10,19 -25,33 -45,43 -20,9 -39,10 -57,3 -18,-7 -30,-19 -36,-38 -6,-18 -4,-37 6,-57 10,-19 26,-33 46,-43zm489 -142c38,-12 77,-15 116,-10 39,6 71,21 97,44 26,24 43,53 54,88 20,72 19,150 -5,236 -24,85 -66,159 -127,223 -61,64 -129,107 -203,129 -66,21 -123,19 -170,-6 -28,-14 -50,-34 -67,-57 -25,84 -63,133 -114,148 -21,6 -39,4 -55,-4 -16,-8 -26,-22 -32,-40 -3,-12 -4,-28 -4,-48l2 -252c0,-25 -1,-43 -5,-54 -2,-7 -6,-12 -14,-16 -8,-4 -17,-4 -28,-1 -5,1 -11,3 -17,5l0 -21 158 -74 30 -8 -3 375c0,22 1,35 3,42 1,3 4,6 7,8 4,3 8,3 11,2 5,-1 10,-5 14,-12 11,-15 22,-40 33,-75 -5,-10 -9,-21 -12,-33 -18,-61 -21,-123 -9,-185 12,-62 33,-120 64,-173 30,-53 69,-100 117,-142 47,-42 100,-71 159,-89zm590 -473l-9 227 133 -42 -7 97 -130 44 -30 485c-2,31 0,53 4,67 2,6 7,10 14,13 8,3 15,3 23,0 11,-4 22,-11 31,-22 26,-28 52,-70 79,-127l40 4c-27,75 -64,136 -111,182 -46,47 -96,79 -150,98 -45,15 -83,19 -114,10 -30,-8 -50,-25 -58,-51 -9,-29 -12,-68 -9,-119l30 -454 -136 47 2 -61c78,-53 142,-105 190,-156 43,-44 124,-157 184,-249l24 7z"/>
    <path class="fil0" d="M531 206c448,-287 972,-272 1169,34 33,50 54,105 66,163l-21 9c-10,-58 -31,-113 -64,-163 -187,-291 -683,-306 -1107,-34 -424,272 -616,729 -429,1019 187,291 683,306 1107,34 333,-214 523,-541 499,-813l21 -9c32,288 -170,640 -527,869 -449,288 -972,273 -1170,-33 -197,-306 7,-788 456,-1076z"/>
   </g>
   <path class="fil1" d="M6611 410l0 186c4,1 9,2 15,2 5,1 12,1 19,1 49,0 83,-9 101,-27 19,-17 28,-48 28,-92 0,-44 -8,-74 -25,-92 -16,-18 -45,-27 -85,-27 -24,0 -38,3 -44,9 -6,5 -9,19 -9,40zm0 390c0,17 2,28 6,33 5,5 13,8 27,8l43 0 0 41 -268 0 0 -41 36 0c14,0 23,-3 28,-8 4,-5 7,-16 7,-33l0 -398c0,-17 -3,-28 -7,-33 -5,-5 -14,-8 -28,-8l-36 0 0 -40 298 0c61,0 107,13 139,40 31,27 47,67 47,119 0,55 -18,96 -55,122 -37,26 -93,40 -170,40 -17,0 -31,-1 -40,-1 -10,0 -18,0 -27,0l0 159z"/>
   <path class="fil1" d="M6034 321l0 40 -33 0c-13,0 -22,3 -26,8 -5,5 -7,16 -7,33l0 287c0,52 9,90 27,113 18,23 46,41 85,42 38,-1 66,-19 84,-42 18,-23 27,-61 27,-113l0 -287c0,-17 -2,-28 -7,-33 -4,-5 -13,-8 -26,-8l-33 0 0 -40 251 0 0 40 -33 0c-14,0 -23,3 -27,8 -5,5 -7,16 -7,33l0 305c0,63 -15,106 -48,138 -33,32 -82,47 -147,47 -22,0 -45,0 -68,0 -64,0 -113,-15 -146,-47 -33,-32 -50,-75 -50,-138l0 -305c0,-17 -2,-28 -7,-33 -4,-5 -13,-8 -26,-8l-34 0 0 -40 251 0z"/>
   <path class="fil1" d="M5244 601c0,-41 6,-80 17,-116 12,-35 29,-66 52,-93 24,-29 51,-50 82,-64 30,-14 65,-21 104,-21 40,0 75,7 105,21 31,14 58,36 83,65 22,27 39,58 50,93 12,35 17,74 17,115 0,43 -5,81 -15,113 -11,32 -28,62 -51,90 -25,30 -54,53 -85,68 -32,15 -67,23 -104,23 -38,0 -73,-7 -103,-22 -31,-14 -58,-37 -84,-68 -23,-28 -41,-58 -52,-90 -11,-33 -16,-71 -16,-114zm135 0c0,86 10,149 29,190 20,41 50,61 91,61 40,0 70,-21 90,-62 20,-42 30,-104 30,-189 0,-85 -10,-148 -29,-189 -20,-41 -50,-62 -91,-62 -41,0 -71,21 -90,62 -20,41 -30,105 -30,189z"/>
   <path class="fil1" d="M4881 403l0 168c4,0 8,1 12,1 4,0 9,0 17,0 51,0 87,-8 107,-24 20,-16 30,-43 30,-83 0,-38 -8,-65 -25,-81 -16,-15 -46,-23 -88,-23 -23,0 -38,2 -44,7 -6,5 -9,17 -9,35zm0 209l0 188c0,16 2,27 7,32 4,6 14,9 27,9l37 0 0 41 -261 0 0 -41 36 0c14,0 23,-3 28,-9 4,-5 7,-16 7,-32l0 -398c0,-16 -3,-27 -7,-32 -5,-6 -14,-9 -28,-9l-36 0 0 -40 298 0c60,0 105,12 136,36 30,24 46,59 46,106 0,41 -13,74 -40,98 -26,24 -87,39 -111,40 21,4 62,6 87,30 50,47 7,206 65,209l48 1 0 43 -103 2c-18,1 -44,-1 -61,-10 -4,-2 -9,-5 -13,-9 -10,-8 -18,-16 -24,-29 -8,-19 -13,-49 -13,-90 0,-13 0,-19 -1,-26 -2,-46 -10,-76 -23,-90 -13,-14 -38,-21 -74,-21 -7,0 -12,0 -16,0 -4,1 -7,1 -11,1z"/>
   <path class="fil1" d="M4479 702c0,-16 -2,-27 -7,-32 -5,-6 -13,-9 -26,-9l-37 0 0 -40 241 0 0 40 -26 0c-13,0 -22,3 -27,9 -5,5 -7,15 -7,29l0 197 -107 0 0 -38c-8,7 -18,12 -28,17 -27,14 -57,21 -89,21 -27,0 -53,-5 -78,-14 -25,-9 -48,-23 -68,-41 -32,-26 -56,-60 -72,-100 -16,-41 -24,-87 -24,-140 0,-49 8,-94 25,-135 17,-41 42,-76 74,-104 21,-18 45,-32 72,-42 27,-9 57,-14 89,-14 28,0 53,4 75,11 21,8 35,16 54,35 10,9 20,22 30,37l-1 -78 32 0 0 223 -34 0c-14,-58 -20,-104 -49,-137 -28,-33 -62,-49 -99,-49 -45,0 -79,21 -101,62 -21,41 -32,105 -32,192 0,87 10,150 29,190 19,39 50,59 92,59 32,0 56,-11 73,-33 18,-22 26,-53 26,-94l0 -22z"/>
   <path class="fil1" d="M3828 691c-12,67 -36,118 -73,153 -36,35 -84,52 -141,52 -30,0 -57,-4 -82,-13 -25,-9 -48,-23 -69,-41 -32,-28 -57,-63 -73,-104 -17,-41 -25,-86 -25,-137 0,-39 5,-76 16,-110 11,-34 27,-65 49,-93 23,-30 50,-53 81,-68 31,-14 67,-22 107,-22 24,0 47,4 68,11 21,7 40,18 58,33l29 32 2 -73 35 0 5 230 -35 0c-14,-64 -30,-112 -57,-145 -26,-32 -58,-48 -96,-48 -44,0 -76,19 -97,59 -20,39 -30,102 -30,189 0,90 11,153 32,191 21,38 56,57 105,57 38,0 70,-14 96,-42 27,-29 46,-70 59,-125l36 14z"/>
   <path class="fil1" d="M3267 484c-5,-49 -10,-129 -110,-127 -11,0 -19,3 -24,8 -4,5 -6,16 -6,32l0 403c0,17 2,28 7,33 5,5 14,8 28,8l33 0 0 41 -257 0 0 -41 34 0c14,0 23,-3 27,-8 5,-5 7,-16 7,-33l0 -403c0,-16 -2,-27 -6,-32 -4,-5 -12,-7 -24,-8 -90,-4 -104,79 -109,127l-34 0 10 -163 446 0 11 163 -33 0z"/>
   <path class="fil1" d="M2274 601c0,-41 6,-80 17,-116 12,-35 29,-66 52,-93 24,-29 51,-50 82,-64 30,-14 65,-21 104,-21 40,0 75,7 106,21 30,14 57,36 82,65 22,27 39,58 50,93 12,35 18,74 18,115 0,43 -6,81 -16,113 -11,32 -28,62 -51,90 -25,30 -53,53 -85,68 -32,15 -67,23 -104,23 -38,0 -73,-7 -103,-22 -31,-14 -58,-37 -84,-68 -23,-28 -41,-58 -52,-90 -11,-33 -16,-71 -16,-114zm135 0c0,86 10,149 30,190 19,41 49,61 90,61 40,0 70,-21 90,-62 20,-42 30,-104 30,-189 0,-85 -10,-148 -29,-189 -20,-41 -50,-62 -91,-62 -41,0 -71,21 -90,62 -20,41 -30,105 -30,189z"/>
   <path class="fil1" d="M2228 321l0 40 -38 0c-14,0 -23,3 -27,8 -5,5 -7,16 -7,33l0 398c0,17 2,28 7,33 4,5 13,8 27,8l38 0 0 41 -266 0 0 -41 38 0c13,0 23,-3 27,-8 5,-5 7,-16 7,-33l0 -398c0,-17 -2,-28 -7,-33 -4,-5 -14,-8 -27,-8l-38 0 0 -40 266 0z"/>
   <path class="fil1" d="M2932 1229l0 58 -5 0c-2,-7 -4,-14 -8,-20 -3,-5 -7,-10 -12,-14 -5,-4 -10,-7 -16,-9 -5,-2 -11,-3 -17,-3 -6,0 -10,0 -15,2 -5,1 -10,4 -14,7 -4,3 -8,6 -11,10 -3,4 -6,8 -8,13 -2,6 -4,13 -6,20 -1,6 -1,14 -1,21 0,7 0,14 1,21 1,7 2,13 4,20 2,6 4,11 7,16 3,4 7,8 11,11 4,3 8,6 14,7 5,2 11,3 17,3 5,0 10,-1 15,-2 5,-1 9,-3 13,-5 5,-3 9,-6 14,-10 4,-3 9,-8 14,-14l0 14c-5,5 -9,9 -14,13 -5,3 -10,6 -15,9 -5,2 -10,3 -16,4 -6,1 -13,2 -19,2 -9,0 -18,-1 -25,-3 -8,-2 -16,-4 -22,-8 -7,-3 -13,-7 -19,-12 -5,-6 -9,-11 -13,-18 -4,-7 -7,-14 -9,-21 -2,-7 -3,-14 -3,-21 0,-8 2,-16 4,-23 2,-8 5,-15 9,-23 4,-7 9,-13 15,-19 5,-5 11,-10 18,-14 7,-3 15,-6 22,-8 8,-2 15,-3 23,-3 6,0 12,0 18,2 6,1 13,3 19,5 4,2 7,3 9,4 3,0 4,1 5,1 2,0 3,-1 4,-1 1,-1 2,-1 3,-2 1,-1 2,-2 3,-4 0,-1 1,-3 1,-5l5 -1z"/>
   <path id="1" class="fil1" d="M3028 1324l0 46c0,5 0,8 1,11 0,3 0,5 1,6 1,1 1,2 2,3 1,1 2,2 4,3 1,0 3,1 6,1 2,1 6,1 9,1l0 4 -85 0 0 -5c4,1 7,1 10,0 3,0 5,-1 6,-1 1,-1 2,-2 3,-3 1,-1 2,-2 3,-3 0,-1 1,-3 1,-6 0,-3 0,-6 0,-11l0 -108c0,-4 0,-7 0,-10 0,-3 -1,-5 -1,-6 -1,-1 -2,-3 -3,-3 -1,-1 -2,-2 -3,-3 -1,-1 -3,-1 -6,-2 -3,0 -6,0 -10,0l0 -5 78 0c10,0 18,1 26,2 7,0 13,1 17,3 5,1 10,3 13,5 4,3 7,6 10,10 3,4 5,8 7,12 1,5 2,9 2,14 0,6 -1,12 -3,17 -2,5 -6,10 -10,14 -3,2 -6,4 -10,6 -4,2 -9,4 -14,5l40 56c3,4 5,7 7,9 2,2 3,4 4,5 2,1 4,2 6,3 2,0 4,1 6,1l0 4 -52 0 -54 -75 -11 0zm0 -82l0 73 7 0c6,0 11,0 15,-1 4,0 8,-1 11,-2 3,-1 5,-3 7,-4 3,-2 4,-5 6,-7 2,-3 3,-6 4,-10 0,-3 1,-7 1,-12 0,-6 -1,-11 -2,-16 -2,-5 -4,-9 -7,-12 -3,-3 -7,-5 -12,-6 -4,-2 -10,-3 -17,-3l-13 0z"/>
   <path id="2" class="fil1" d="M3227 1243l0 67 4 0c5,0 9,0 13,-2 4,-2 7,-4 9,-7 3,-4 5,-8 6,-13 2,-5 3,-10 4,-17l4 0 0 87 -4 0c-1,-5 -2,-9 -3,-13 -1,-3 -2,-7 -4,-10 -1,-3 -3,-5 -5,-8 -2,-2 -4,-3 -6,-4 -2,-1 -4,-2 -7,-2 -3,-1 -7,-1 -11,-1l0 46c0,5 0,9 1,12 0,2 0,4 1,5 0,1 0,2 1,3 1,1 2,2 3,2 1,1 2,1 4,2 2,0 4,0 6,0l10 0c8,0 15,-1 21,-2 6,-2 11,-5 16,-9 5,-3 9,-8 12,-13 4,-6 6,-12 8,-19l5 -1 -8 53 -143 0 0 -5 5 0c3,1 5,0 7,0 2,0 4,-1 5,-2 1,0 2,-1 3,-2 1,-1 1,-2 2,-4 0,-1 1,-2 1,-5 0,-3 0,-6 0,-10l0 -109c0,-4 0,-7 0,-9 0,-2 0,-4 0,-5 -1,-1 -1,-3 -2,-4 -1,-1 -2,-2 -3,-3 -1,-1 -3,-2 -5,-2 -2,-1 -5,-1 -8,-1l-5 0 0 -5 139 0 0 49 -5 0c-1,-6 -2,-11 -4,-15 -2,-4 -4,-8 -6,-10 -2,-3 -5,-5 -8,-7 -3,-2 -6,-4 -10,-5 -2,-1 -5,-1 -10,-2 -4,0 -9,0 -16,0l-17 0z"/>
   <path id="3" class="fil1" d="M3447 1352l-59 0 -7 16c-1,3 -2,5 -3,8 0,2 -1,4 -1,6 0,2 1,4 2,6 1,2 2,3 4,4 1,1 3,1 6,2 3,0 6,0 10,1l0 4 -55 0 0 -5c3,0 6,0 8,-2 3,-1 5,-3 7,-5 2,-2 4,-5 6,-9 3,-4 5,-9 8,-16l59 -132 3 0 59 136c3,7 6,12 8,16 3,4 5,7 7,8 1,2 3,3 5,3 1,1 4,2 6,2l0 4 -80 0 0 -5 3 0c4,1 6,0 9,0 2,0 4,-1 5,-2 1,0 2,-1 2,-2 0,-1 1,-2 1,-4 0,0 0,-1 -1,-2 0,-1 0,-1 0,-2 0,0 -1,-1 -1,-3 -1,-1 -2,-3 -3,-6l-8 -21zm-5 -9l-25 -57 -25 57 50 0z"/>
   <path id="4" class="fil1" d="M3679 1233l0 45 -4 0c-2,-5 -3,-9 -5,-13 -1,-4 -3,-7 -4,-9 -2,-2 -4,-4 -6,-6 -2,-2 -4,-3 -7,-5 -2,-1 -4,-1 -7,-2 -2,0 -6,0 -10,0l-12 0 0 128c0,4 0,8 0,10 1,3 1,5 1,6 1,1 2,2 3,3 1,1 2,2 3,2 1,1 3,2 5,2 2,0 4,1 6,1l6 -1 0 5 -87 0 0 -5 5 0c3,1 5,0 7,0 2,0 4,-1 5,-2 1,0 2,-1 3,-2 1,-1 1,-2 2,-4 0,-1 1,-2 1,-5 0,-3 0,-6 0,-10l0 -128 -12 0c-5,0 -10,1 -14,2 -4,1 -7,3 -10,5 -4,3 -7,7 -9,12 -2,5 -4,10 -4,16l-5 0 0 -45 149 0z"/>
   <path id="5" class="fil1" d="M3772 1243l0 67 4 0c5,0 10,0 13,-2 4,-2 7,-4 9,-7 3,-4 5,-8 6,-13 2,-5 3,-10 4,-17l4 0 0 87 -4 0c-1,-5 -2,-9 -3,-13 -1,-3 -2,-7 -4,-10 -1,-3 -3,-5 -5,-8 -1,-2 -3,-3 -6,-4 -2,-1 -4,-2 -7,-2 -3,-1 -7,-1 -11,-1l0 46c0,5 0,9 1,12 0,2 0,4 1,5 0,1 0,2 1,3 1,1 2,2 3,2 1,1 2,1 4,2 2,0 4,0 6,0l10 0c8,0 15,-1 21,-2 6,-2 12,-5 16,-9 5,-3 9,-8 12,-13 4,-6 6,-12 9,-19l4 -1 -7 53 -144 0 0 -5 5 0c3,1 5,0 7,0 2,0 4,-1 5,-2 1,0 2,-1 3,-2 1,-1 2,-2 2,-4 1,-1 1,-2 1,-5 0,-3 1,-6 1,-10l0 -109c0,-4 -1,-7 -1,-9 0,-2 0,-4 0,-5 -1,-1 -1,-3 -2,-4 -1,-1 -2,-2 -3,-3 -1,-1 -3,-2 -5,-2 -2,-1 -5,-1 -8,-1l-5 0 0 -5 139 0 0 49 -5 0c-1,-6 -2,-11 -4,-15 -2,-4 -4,-8 -6,-10 -2,-3 -5,-5 -8,-7 -3,-2 -6,-4 -10,-5 -2,-1 -5,-1 -10,-2 -4,0 -9,0 -16,0l-17 0z"/>
   <path id="6" class="fil1" d="M4061 1311c8,2 15,4 20,6 6,3 10,5 14,8 4,3 7,8 10,13 2,4 3,10 3,16 0,6 -1,11 -4,17 -2,5 -6,9 -11,13 -6,5 -14,9 -22,11 -9,3 -20,4 -32,4l-84 0 0 -5c4,1 7,1 10,0 2,0 4,-1 6,-1 1,-1 2,-2 3,-3 1,-1 2,-2 3,-3 0,-1 0,-3 1,-6 0,-3 0,-6 0,-11l0 -108c0,-4 0,-7 0,-10 -1,-3 -1,-5 -1,-6 -1,-1 -2,-3 -3,-3 -1,-1 -2,-2 -3,-3 -2,-1 -4,-1 -6,-2 -3,0 -6,0 -10,0l0 -5 80 0c9,0 17,1 24,2 7,0 12,2 16,4 4,1 8,3 11,6 3,2 5,5 8,9 2,3 4,6 5,10 1,4 2,7 2,11 0,4 -1,8 -3,12 -1,3 -3,6 -6,10 -3,3 -7,5 -12,8 -5,2 -11,4 -19,6l0 0zm-44 -3c6,0 11,0 15,-1 4,-1 8,-2 10,-3 3,-1 6,-3 8,-4 2,-2 4,-4 5,-7 1,-2 3,-5 3,-8 1,-3 1,-6 1,-10 0,-4 0,-7 -1,-10 0,-3 -1,-6 -3,-8 -1,-2 -3,-4 -5,-6 -2,-2 -4,-3 -7,-5 -3,-1 -6,-2 -11,-2 -4,-1 -9,-1 -15,-1l0 65zm0 9l0 54 0 6c0,2 0,4 1,6 0,1 1,3 2,4 1,1 3,2 4,2 2,1 4,1 6,1 3,0 6,0 9,-1 3,0 6,-2 9,-3 3,-2 5,-3 7,-5 2,-3 4,-5 6,-8 1,-2 2,-5 3,-8 1,-4 1,-7 1,-10 0,-4 0,-8 -1,-11 -1,-3 -2,-7 -4,-10 -2,-3 -4,-6 -7,-8 -2,-2 -5,-4 -8,-5 -3,-1 -7,-2 -12,-3 -4,0 -10,0 -16,0l0 -1z"/>
   <path id="7" class="fil1" d="M4201 1243l0 67 4 0c5,0 10,0 13,-2 4,-2 7,-4 9,-7 3,-4 5,-8 6,-13 2,-5 3,-10 4,-17l4 0 0 87 -4 0c-1,-5 -2,-9 -3,-13 -1,-3 -2,-7 -4,-10 -1,-3 -3,-5 -5,-8 -1,-2 -3,-3 -6,-4 -2,-1 -4,-2 -7,-2 -3,-1 -7,-1 -11,-1l0 46c0,5 0,9 1,12 0,2 0,4 1,5 0,1 0,2 1,3 1,1 2,2 3,2 1,1 2,1 4,2 2,0 4,0 6,0l10 0c8,0 15,-1 21,-2 6,-2 12,-5 16,-9 5,-3 9,-8 12,-13 4,-6 6,-12 9,-19l4 -1 -7 53 -144 0 0 -5 6 0c2,1 4,0 6,0 2,0 4,-1 5,-2 1,0 2,-1 3,-2 1,-1 2,-2 2,-4 1,-1 1,-2 1,-5 0,-3 1,-6 1,-10l0 -109c0,-4 -1,-7 -1,-9 0,-2 0,-4 0,-5 -1,-1 -1,-3 -2,-4 -1,-1 -2,-2 -3,-3 -1,-1 -3,-2 -5,-2 -2,-1 -5,-1 -7,-1l-6 0 0 -5 139 0 0 49 -5 0c-1,-6 -2,-11 -4,-15 -2,-4 -4,-8 -6,-10 -2,-3 -5,-5 -8,-7 -3,-2 -6,-4 -10,-5 -2,-1 -5,-1 -10,-2 -4,0 -9,0 -16,0l-17 0z"/>
   <path id="8" class="fil1" d="M4474 1233l0 45 -4 0c-1,-5 -3,-9 -4,-13 -2,-4 -3,-7 -5,-9 -1,-2 -3,-4 -5,-6 -3,-2 -5,-3 -8,-5 -2,-1 -4,-1 -6,-2 -3,0 -6,0 -10,0l-12 0 0 128c0,4 0,8 0,10 0,3 0,5 1,6 0,1 1,2 2,3 1,1 2,2 3,2 2,1 3,2 5,2 2,0 4,1 7,1l5 -1 0 5 -87 0 0 -5 6 0c2,1 4,0 6,0 2,0 4,-1 6,-2 1,0 1,-1 2,-2 1,-1 2,-2 3,-4 0,-1 0,-2 0,-5 1,-3 1,-6 1,-10l0 -128 -12 0c-6,0 -11,1 -15,2 -4,1 -7,3 -10,5 -3,3 -6,7 -8,12 -3,5 -4,10 -5,16l-5 0 0 -45 149 0z"/>
   <path id="9" class="fil1" d="M4657 1233l0 45 -4 0c-1,-5 -3,-9 -4,-13 -1,-4 -3,-7 -5,-9 -1,-2 -3,-4 -5,-6 -2,-2 -5,-3 -8,-5 -1,-1 -3,-1 -6,-2 -3,0 -6,0 -10,0l-12 0 0 128c0,4 0,8 0,10 0,3 1,5 1,6 1,1 1,2 2,3 1,1 2,2 4,2 1,1 3,2 4,2 2,0 5,1 7,1l5 -1 0 5 -87 0 0 -5 6 0c2,1 4,0 6,0 2,0 4,-1 6,-2 1,0 2,-1 2,-2 1,-1 2,-2 3,-4 0,-1 0,-2 1,-5 0,-3 0,-6 0,-10l0 -128 -12 0c-6,0 -11,1 -15,2 -4,1 -7,3 -9,5 -4,3 -7,7 -9,12 -2,5 -4,10 -5,16l-4 0 0 -45 148 0z"/>
   <path id="10" class="fil1" d="M4751 1243l0 67 3 0c6,0 10,0 14,-2 4,-2 7,-4 9,-7 2,-4 4,-8 6,-13 1,-5 3,-10 3,-17l5 0 0 87 -5 0c0,-5 -1,-9 -2,-13 -1,-3 -2,-7 -4,-10 -2,-3 -3,-5 -5,-8 -2,-2 -4,-3 -6,-4 -2,-1 -5,-2 -8,-2 -3,-1 -6,-1 -10,-1l0 46c0,5 0,9 0,12 1,2 1,4 1,5 1,1 1,2 2,3 0,1 1,2 2,2 1,1 3,1 5,2 1,0 3,0 6,0l10 0c7,0 14,-1 21,-2 6,-2 11,-5 16,-9 4,-3 8,-8 12,-13 3,-6 6,-12 8,-19l5 -1 -8 53 -143 0 0 -5 5 0c2,1 5,0 7,0 2,0 3,-1 5,-2 1,0 2,-1 3,-2 0,-1 1,-2 2,-4 0,-1 0,-2 1,-5 0,-3 0,-6 0,-10l0 -109c0,-4 0,-7 0,-9 0,-2 0,-4 -1,-5 0,-1 -1,-3 -2,-4 0,-1 -1,-2 -2,-3 -2,-1 -3,-2 -6,-2 -2,-1 -4,-1 -7,-1l-5 0 0 -5 139 0 0 49 -5 0c-1,-6 -3,-11 -4,-15 -2,-4 -4,-8 -6,-10 -2,-3 -5,-5 -8,-7 -3,-2 -6,-4 -10,-5 -2,-1 -6,-1 -10,-2 -4,0 -10,0 -16,0l-17 0z"/>
   <path id="11" class="fil1" d="M4932 1324l0 46c0,5 1,8 1,11 0,3 0,5 1,6 1,1 1,2 2,3 1,1 3,2 4,3 1,0 3,1 6,1 3,1 6,1 9,1l0 4 -84 0 0 -5c3,1 7,1 9,0 3,0 5,-1 6,-1 1,-1 3,-2 4,-3 1,-1 1,-2 2,-3 0,-1 1,-3 1,-6 0,-3 1,-6 1,-11l0 -108c0,-4 -1,-7 -1,-10 0,-3 -1,-5 -1,-6 -1,-1 -1,-3 -2,-3 -1,-1 -3,-2 -4,-3 -1,-1 -3,-1 -6,-2 -2,0 -6,0 -9,0l0 -5 77 0c10,0 18,1 26,2 7,0 13,1 17,3 5,1 10,3 13,5 4,3 7,6 10,10 3,4 6,8 7,12 1,5 2,9 2,14 0,6 -1,12 -3,17 -2,5 -6,10 -10,14 -3,2 -6,4 -10,6 -4,2 -9,4 -14,5l40 56c3,4 5,7 7,9 2,2 3,4 4,5 2,1 4,2 6,3 2,0 4,1 6,1l0 4 -52 0 -54 -75 -11 0zm0 -82l0 73 7 0c6,0 11,0 15,-1 5,0 8,-1 11,-2 3,-1 5,-3 7,-4 3,-2 4,-5 6,-7 2,-3 3,-6 4,-10 1,-3 1,-7 1,-12 0,-6 -1,-11 -2,-16 -2,-5 -4,-9 -7,-12 -3,-3 -7,-5 -11,-6 -5,-2 -11,-3 -18,-3l-13 0z"/>
   <path id="12" class="fil1" d="M5432 1233l0 5c-2,0 -3,0 -4,1 -1,0 -3,1 -4,2 -1,0 -2,1 -3,2 -1,2 -2,3 -2,4 -1,1 -1,3 -3,6 -1,3 -3,7 -5,13l-52 137 -5 0 -41 -107 -45 107 -5 0 -54 -136c-3,-6 -5,-12 -7,-16 -2,-4 -4,-7 -5,-8 -1,-1 -2,-3 -4,-3 -2,-1 -4,-2 -7,-2l0 -5 72 0 0 5c-3,0 -5,0 -7,1 -2,0 -4,1 -5,2 -1,0 -1,1 -2,2 0,1 0,2 0,4 0,1 0,4 1,7 1,3 3,7 5,12l32 81 26 -63 -7 -18c-2,-5 -3,-9 -5,-12 -1,-3 -2,-5 -3,-7 -2,-2 -3,-3 -4,-4 -1,-1 -2,-2 -3,-3 -2,-1 -3,-1 -5,-2 -2,0 -5,0 -7,0l0 -5 80 0 0 5c-3,0 -5,0 -7,1 -2,0 -4,0 -5,0 -1,1 -1,1 -2,1 -1,1 -2,2 -2,2 -1,1 -1,2 -1,2 0,1 -1,2 -1,3 0,1 1,3 2,6 1,2 2,6 4,11l30 78 27 -71c2,-3 3,-6 4,-9 1,-2 1,-4 2,-6 0,-1 0,-1 0,-2 0,-1 0,-2 0,-3 1,0 1,-1 1,-1 0,0 0,-1 0,-1 0,-2 -1,-3 -1,-4 -1,-2 -2,-3 -3,-4 -1,-1 -3,-2 -5,-2 -2,-1 -5,-1 -8,-1l0 -5 43 0z"/>
   <path id="13" class="fil1" d="M5547 1231c14,0 26,1 36,5 11,4 21,10 29,18 8,8 14,18 19,28 4,10 6,21 6,34 0,10 -2,20 -5,29 -3,10 -8,18 -14,26 -8,11 -18,19 -29,24 -12,5 -25,8 -40,8 -15,0 -28,-3 -40,-8 -11,-5 -21,-12 -29,-22 -7,-8 -11,-17 -15,-26 -3,-10 -4,-20 -4,-31 0,-13 2,-24 6,-34 4,-10 10,-19 19,-28 8,-8 17,-14 28,-18 10,-4 21,-5 33,-5l0 0zm2 8c-8,0 -14,2 -20,6 -6,4 -11,9 -15,17 -3,7 -5,14 -7,24 -2,9 -2,19 -2,31 0,14 1,27 3,37 3,10 6,19 11,26 4,4 8,8 13,10 5,3 11,4 17,4 4,0 8,-1 11,-2 4,-1 7,-2 10,-4 3,-3 6,-6 9,-10 3,-5 5,-9 7,-15 2,-6 4,-13 5,-20 1,-7 1,-16 1,-25 0,-11 0,-21 -1,-29 -1,-8 -3,-15 -5,-20 -2,-6 -4,-10 -7,-14 -2,-4 -5,-7 -8,-9 -3,-3 -7,-4 -10,-5 -4,-2 -8,-2 -12,-2l0 0z"/>
   <path id="14" class="fil1" d="M5728 1324l0 46c0,5 0,8 1,11 0,3 0,5 1,6 0,1 1,2 2,3 1,1 2,2 4,3 1,0 3,1 6,1 2,1 6,1 9,1l0 4 -85 0 0 -5c4,1 7,1 10,0 3,0 5,-1 6,-1 1,-1 2,-2 3,-3 1,-1 2,-2 3,-3 0,-1 1,-3 1,-6 0,-3 0,-6 0,-11l0 -108c0,-4 0,-7 0,-10 0,-3 -1,-5 -1,-6 -1,-1 -2,-3 -3,-3 -1,-1 -2,-2 -3,-3 -1,-1 -3,-1 -6,-2 -3,0 -6,0 -10,0l0 -5 77 0c10,0 19,1 26,2 8,0 14,1 18,3 5,1 9,3 13,5 4,3 7,6 10,10 3,4 5,8 7,12 1,5 2,9 2,14 0,6 -1,12 -3,17 -3,5 -6,10 -10,14 -3,2 -6,4 -10,6 -4,2 -9,4 -14,5l40 56c3,4 5,7 7,9 1,2 3,4 4,5 2,1 4,2 6,3 1,0 3,1 6,1l0 4 -52 0 -54 -75 -11 0zm0 -82l0 73 7 0c6,0 11,0 15,-1 4,0 8,-1 11,-2 3,-1 5,-3 7,-4 2,-2 4,-5 6,-7 1,-3 3,-6 4,-10 0,-3 1,-7 1,-12 0,-6 -1,-11 -2,-16 -2,-5 -4,-9 -7,-12 -3,-3 -7,-5 -12,-6 -4,-2 -10,-3 -17,-3l-13 0z"/>
   <path id="15" class="fil1" d="M6017 1341l-6 58 -147 0 0 -5 5 0c2,1 5,0 6,0 2,0 4,-1 6,-2 1,0 1,-1 2,-2 1,-1 2,-2 3,-4 0,-1 0,-2 0,-5 1,-3 1,-6 1,-10l0 -109c0,-4 0,-8 0,-10 -1,-3 -1,-5 -1,-6 -1,-1 -2,-2 -3,-3 0,-1 -2,-2 -3,-3 -1,0 -3,-1 -5,-1 -2,-1 -4,-1 -6,-1l-5 0 0 -5 88 0 0 5 -7 0c-3,0 -5,0 -7,1 -2,0 -4,1 -5,2 -1,0 -2,1 -3,2 -1,1 -1,2 -2,3 0,1 -1,3 -1,6 0,2 0,6 0,10l0 105c0,5 0,8 0,11 0,3 1,5 1,6 1,1 1,2 2,3 1,1 3,1 4,2 1,0 3,1 5,1 3,0 6,0 10,0l14 0c4,0 8,0 12,-1 3,-1 7,-2 10,-4 3,-1 5,-3 8,-6 2,-2 5,-5 7,-8 2,-4 4,-8 6,-13 2,-5 4,-10 6,-17l5 0z"/>
   <path id="16" class="fil1" d="M6045 1399l0 -5 6 0c2,1 4,0 6,0 2,0 4,-1 5,-2 1,0 2,-1 3,-2 1,-1 2,-2 3,-4 0,0 0,-2 1,-5 0,-2 0,-6 0,-10l0 -109c0,-4 0,-8 -1,-10 0,-3 0,-5 0,-6 -1,-1 -2,-2 -3,-3 -1,-1 -2,-2 -3,-3 -1,0 -3,-1 -5,-1 -2,-1 -4,-1 -6,-1l-6 0 0 -5 75 0c9,0 18,1 26,2 8,2 15,4 21,7 8,3 14,7 20,12 6,5 10,11 14,17 4,7 7,14 9,22 2,7 3,15 3,24 0,6 -1,11 -2,17 -1,5 -2,10 -4,15 -2,5 -4,9 -7,14 -2,4 -5,7 -8,10 -3,4 -6,6 -9,9 -4,3 -7,5 -11,7 -4,2 -8,3 -13,5 -5,1 -10,3 -16,4 -2,0 -6,1 -9,1 -4,0 -9,0 -14,0l-75 0zm64 -156l0 129c0,4 0,6 0,9 0,2 0,3 1,4 0,1 0,1 1,2 1,1 1,1 2,1 1,1 2,2 4,2 1,0 3,0 5,0 7,0 13,-1 18,-3 6,-2 10,-6 14,-11 5,-6 8,-14 11,-24 2,-10 3,-21 3,-34 0,-11 -1,-20 -2,-29 -2,-8 -4,-16 -8,-22 -2,-5 -5,-9 -9,-13 -3,-3 -7,-6 -11,-7 -3,-2 -7,-3 -12,-3 -5,-1 -11,-1 -17,-1l0 0z"/>
   <rect class="fil0" x="1968" y="1037" width="4930.2" height="24.2473"/>
  </g>
 </g>
</svg>
