<?xml version="1.0" encoding="UTF-8"?>
<!DOCTYPE svg PUBLIC "-//W3C//DTD SVG 1.1//EN" "http://www.w3.org/Graphics/SVG/1.1/DTD/svg11.dtd">
<!-- Creator: CorelDRAW X7 -->
<svg xmlns="http://www.w3.org/2000/svg" xml:space="preserve" width="3.43835in" height="1.16258in" version="1.1" style="shape-rendering:geometricPrecision; text-rendering:geometricPrecision; image-rendering:optimizeQuality; fill-rule:evenodd; clip-rule:evenodd"
viewBox="0 0 3434 1161"
 xmlns:xlink="http://www.w3.org/1999/xlink">
 <defs>
  <style type="text/css">
   <![CDATA[
    .fil0 {fill:none}
    .fil1 {fill:#302861}
    .fil3 {fill:#302861}
    .fil2 {fill:#302861;fill-rule:nonzero}
   ]]>
  </style>
 </defs>
 <g id="Layer_x0020_1">
  <metadata id="CorelCorpID_0Corel-Layer"/>
  <rect class="fil0" width="3434" height="1161"/>
  <g id="_1912776599168">
   <g>
    <path class="fil1" d="M494 456c-12,4 -21,10 -26,18 -12,17 -21,52 -27,104 -7,51 -4,96 6,132 3,9 8,16 16,20 8,4 16,5 24,2 9,-2 16,-7 21,-14 8,-10 15,-29 22,-59 7,-29 10,-60 11,-92 0,-33 -3,-62 -10,-87 -3,-10 -8,-17 -16,-21 -7,-4 -14,-5 -21,-3zm-209 44c9,-4 17,-5 25,-2 8,3 14,9 16,17 3,9 2,17 -3,26 -4,9 -11,15 -20,19 -9,4 -17,5 -25,2 -9,-3 -14,-9 -16,-17 -3,-9 -2,-17 2,-26 5,-8 12,-15 21,-19zm218 -64c17,-5 35,-6 52,-4 17,3 32,9 43,20 12,10 20,23 24,39 9,32 9,67 -2,105 -11,38 -30,72 -57,100 -27,29 -57,48 -90,58 -30,9 -55,8 -76,-3 -13,-6 -22,-15 -30,-26 -11,38 -28,60 -51,66 -9,3 -17,3 -25,-1 -7,-4 -11,-10 -14,-18 -1,-5 -2,-13 -2,-21l1 -113c0,-11 0,-19 -2,-24 -1,-3 -3,-6 -6,-7 -4,-2 -8,-2 -13,-1 -2,1 -4,2 -7,2l0 -9 70 -33 13 -4 -1 168c1,10 1,16 2,19 0,1 1,2 3,3 2,1 3,2 5,1 2,0 4,-2 6,-5 5,-7 10,-18 15,-34 -2,-4 -4,-9 -6,-14 -8,-28 -9,-55 -4,-83 6,-28 15,-54 29,-77 13,-24 31,-45 52,-64 21,-18 45,-32 71,-40zm264 -211l-5 102 60 -19 -3 43 -58 20 -13 217c-1,13 -1,23 1,29 1,3 3,5 7,6 3,1 6,1 10,0 5,-1 9,-5 14,-10 11,-12 22,-31 35,-56l18 2c-13,33 -29,60 -50,81 -21,21 -43,35 -67,43 -20,7 -37,9 -51,5 -13,-4 -22,-11 -26,-23 -4,-13 -5,-30 -4,-53l14 -202 -61 20 1 -27c35,-23 63,-47 85,-69 19,-20 55,-71 82,-112l11 3z"/>
    <path class="fil1" d="M385 305c201,-129 435,-122 523,15 14,22 24,47 29,73l-9 4c-5,-26 -14,-51 -29,-73 -83,-130 -305,-137 -494,-15 -190,121 -275,325 -192,454 84,130 305,137 495,15 148,-95 233,-241 222,-362l10 -5c14,129 -76,286 -235,389 -201,128 -435,122 -523,-15 -88,-137 3,-352 203,-480z"/>
   </g>
   <path class="fil2" d="M3100 395l0 84c2,0 4,0 7,1 2,0 5,0 9,0 21,0 36,-4 45,-12 8,-8 12,-22 12,-41 0,-20 -4,-33 -11,-41 -7,-8 -20,-12 -38,-12 -10,0 -17,1 -20,4 -2,2 -4,8 -4,17zm0 175c0,7 1,12 3,14 2,3 6,4 12,4l19 0 0 18 -119 0 0 -18 16 0c6,0 10,-1 12,-4 2,-2 3,-7 3,-14l0 -178c0,-8 -1,-13 -3,-15 -2,-2 -6,-3 -12,-3l-16 0 0 -18 133 0c27,0 48,6 62,18 14,12 21,29 21,53 0,24 -8,42 -25,54 -16,12 -41,18 -75,18 -8,0 -14,0 -19,0 -4,0 -8,0 -12,0l0 71z"/>
   <path class="fil2" d="M2843 356l0 18 -15 0c-6,0 -10,1 -12,3 -2,3 -3,8 -3,15l0 128c0,23 4,40 12,51 8,10 21,18 38,18 17,0 30,-8 38,-18 8,-11 12,-28 12,-51l0 -128c0,-7 -1,-12 -3,-15 -2,-2 -6,-3 -12,-3l-15 0 0 -18 113 0 0 18 -15 0c-6,0 -10,1 -12,3 -2,3 -4,8 -4,15l0 136c0,28 -6,48 -21,62 -15,14 -36,21 -65,21 -10,0 -21,0 -31,0 -29,0 -50,-7 -65,-21 -15,-14 -22,-34 -22,-62l0 -136c0,-7 -1,-12 -3,-15 -2,-2 -6,-3 -12,-3l-15 0 0 -18 112 0z"/>
   <path class="fil2" d="M2490 481c0,-19 3,-36 8,-52 5,-16 13,-30 23,-42 10,-12 23,-22 36,-28 14,-6 29,-10 47,-10 18,0 33,3 47,10 13,6 26,16 37,29 9,12 17,26 22,41 5,16 8,33 8,52 0,19 -2,36 -7,50 -5,15 -12,28 -23,40 -11,14 -24,24 -38,31 -14,7 -30,10 -46,10 -17,0 -33,-3 -46,-10 -14,-6 -26,-16 -38,-30 -10,-12 -18,-26 -23,-40 -5,-15 -7,-32 -7,-51zm60 0c0,38 5,66 13,84 9,19 23,28 41,28 18,0 31,-9 40,-28 9,-18 14,-46 14,-84 0,-38 -5,-66 -14,-85 -8,-18 -22,-27 -40,-27 -18,0 -32,9 -41,27 -8,19 -13,47 -13,85z"/>
   <path class="fil2" d="M2328 393l0 74c2,1 3,1 5,1 2,0 4,0 8,0 23,0 39,-4 48,-11 9,-7 13,-19 13,-37 0,-17 -4,-29 -11,-36 -7,-7 -21,-10 -40,-10 -10,0 -16,1 -19,3 -3,2 -4,7 -4,16zm0 93l0 84c0,7 1,11 3,14 2,2 6,4 12,4l17 0 0 18 -117 0 0 -18 16 0c6,0 10,-2 13,-4 2,-3 3,-7 3,-14l0 -178c0,-7 -1,-12 -4,-15 -2,-2 -6,-3 -12,-3l-16 0 0 -18 133 0c27,0 47,5 61,16 13,11 20,26 20,47 0,19 -6,33 -17,44 -12,11 -39,18 -50,18 10,2 28,3 39,13 22,21 3,92 29,93l21 1 0 19 -45 1c-9,0 -20,0 -28,-4 -2,-2 -4,-3 -6,-4 -4,-4 -8,-8 -10,-13 -4,-9 -6,-22 -6,-40 0,-6 0,-9 -1,-12 -1,-21 -4,-34 -10,-40 -6,-7 -17,-10 -33,-10 -3,0 -6,0 -7,0 -2,0 -3,1 -5,1z"/>
   <path class="fil2" d="M2149 526c0,-7 -1,-12 -4,-15 -2,-2 -6,-3 -11,-3l-17 0 0 -18 108 0 0 18 -12 0c-6,0 -10,1 -12,3 -2,3 -3,7 -3,13l0 88 -48 0 0 -16c-3,3 -8,5 -12,7 -12,6 -26,9 -40,9 -12,0 -24,-2 -35,-6 -11,-4 -21,-10 -30,-18 -14,-12 -25,-27 -32,-45 -8,-18 -11,-39 -11,-62 0,-22 4,-42 11,-60 8,-19 19,-34 33,-47 9,-8 20,-14 32,-19 12,-4 26,-6 40,-6 13,0 24,2 33,5 10,3 16,7 25,16 4,4 9,9 13,16l0 -35 14 0 0 100 -15 0c-7,-26 -9,-47 -22,-61 -13,-15 -28,-22 -44,-22 -21,0 -36,9 -45,27 -10,19 -15,48 -15,86 0,39 4,67 13,85 9,18 22,27 41,27 14,0 25,-5 33,-15 8,-10 12,-24 12,-42l0 -10z"/>
   <path class="fil2" d="M1858 521c-5,30 -16,53 -33,68 -16,16 -37,24 -63,24 -13,0 -25,-2 -36,-6 -12,-4 -22,-10 -31,-19 -15,-12 -25,-28 -33,-46 -7,-18 -11,-39 -11,-61 0,-18 2,-34 7,-49 5,-16 12,-29 22,-42 10,-13 23,-23 36,-30 14,-7 30,-10 48,-10 11,0 21,2 30,5 10,3 18,8 26,14l13 15 1 -33 16 0 2 103 -16 0c-6,-29 -13,-50 -25,-65 -12,-14 -26,-21 -43,-21 -20,0 -34,8 -43,26 -9,18 -14,46 -14,85 0,40 5,68 15,85 9,17 25,25 46,25 17,0 32,-6 43,-19 12,-12 21,-31 27,-55l16 6z"/>
   <path class="fil2" d="M1607 428c-2,-21 -4,-57 -49,-56 -5,0 -9,1 -10,3 -2,3 -3,8 -3,15l0 180c0,7 1,12 3,14 2,3 6,4 12,4l15 0 0 18 -114 0 0 -18 15 0c6,0 10,-1 12,-4 2,-2 3,-7 3,-14l0 -180c0,-8 -1,-12 -3,-15 -2,-2 -5,-3 -11,-3 -40,-2 -46,35 -48,56l-16 0 5 -72 199 0 5 72 -15 0z"/>
   <path class="fil2" d="M1164 481c0,-19 2,-36 8,-52 5,-16 13,-30 23,-42 10,-12 22,-22 36,-28 14,-6 29,-10 47,-10 18,0 33,3 47,10 13,6 26,16 37,29 9,12 17,26 22,41 5,16 8,33 8,52 0,19 -3,36 -7,50 -5,15 -12,28 -23,40 -11,14 -24,24 -38,31 -14,7 -30,10 -46,10 -17,0 -33,-3 -46,-10 -14,-6 -26,-16 -38,-30 -10,-12 -18,-26 -23,-40 -5,-15 -7,-32 -7,-51zm60 0c0,38 5,66 13,84 9,19 23,28 41,28 18,0 31,-9 40,-28 9,-18 13,-46 13,-84 0,-38 -4,-66 -13,-85 -9,-18 -22,-27 -40,-27 -18,0 -32,9 -41,27 -8,19 -13,47 -13,85z"/>
   <path class="fil2" d="M1143 356l0 18 -17 0c-6,0 -10,1 -12,3 -2,2 -3,7 -3,15l0 178c0,7 1,12 3,14 2,3 6,4 12,4l17 0 0 18 -118 0 0 -18 16 0c7,0 11,-1 13,-4 2,-2 3,-7 3,-14l0 -178c0,-8 -1,-13 -3,-15 -2,-2 -6,-3 -13,-3l-16 0 0 -18 118 0z"/>
   <path class="fil2" d="M1458 761l0 26 -2 0c-1,-3 -2,-6 -4,-9 -1,-2 -3,-4 -5,-6 -3,-2 -5,-3 -7,-4 -3,-1 -5,-2 -8,-2 -3,0 -5,1 -7,1 -2,1 -4,2 -6,3 -2,2 -4,3 -5,5 -1,2 -3,4 -3,6 -2,3 -3,5 -3,9 -1,3 -1,6 -1,9 0,3 0,7 1,10 0,3 1,6 2,8 0,3 1,5 3,7 1,2 3,4 4,6 2,1 4,2 7,3 2,0 5,1 7,1 3,0 5,0 7,-1 2,0 4,-1 6,-2 2,-1 4,-3 6,-4 2,-2 4,-4 6,-7l0 6c-2,3 -4,5 -6,6 -2,2 -4,3 -7,4 -2,1 -4,2 -7,2 -2,1 -5,1 -8,1 -4,0 -8,-1 -12,-1 -3,-1 -6,-2 -9,-4 -3,-1 -6,-3 -8,-6 -3,-2 -5,-4 -7,-7 -1,-3 -2,-7 -3,-10 -1,-3 -2,-6 -2,-9 0,-4 1,-7 2,-11 1,-3 2,-6 4,-10 2,-3 4,-6 6,-8 3,-2 6,-5 9,-6 3,-2 6,-3 10,-4 3,-1 6,-2 10,-2 2,0 5,1 8,1 3,1 6,2 8,3 2,1 4,1 5,1 1,1 1,1 2,1 0,0 1,0 1,-1 1,0 1,0 2,0 0,-1 1,-1 1,-2 0,-1 0,-2 1,-3l2 0z"/>
   <path id="1" class="fil2" d="M1501 803l0 21c0,2 0,4 0,5 0,1 0,2 1,3 0,0 0,1 1,1 0,1 1,1 1,1 1,1 2,1 3,1 1,0 2,0 4,0l0 2 -38 0 0 -2c2,0 3,0 4,0 2,0 2,0 3,-1 1,0 1,0 2,-1 0,0 0,-1 1,-1 0,-1 0,-2 0,-3 0,-1 0,-3 0,-5l0 -48c0,-2 0,-3 0,-5 0,-1 0,-2 0,-2 -1,-1 -1,-1 -1,-2 -1,0 -1,-1 -2,-1 -1,0 -1,0 -3,-1 -1,0 -2,0 -4,0l0 -2 35 0c4,0 8,0 11,1 3,0 6,0 8,1 2,1 4,1 6,3 2,1 3,2 4,4 2,2 3,3 3,5 1,2 1,4 1,7 0,2 0,5 -1,7 -1,2 -3,4 -5,6 -1,1 -2,2 -4,3 -2,1 -4,2 -6,2l18 25c1,2 2,3 3,4 0,1 1,2 2,2 0,1 1,1 2,2 1,0 2,0 3,0l0 2 -24 0 -23 -34 -5 0zm0 -36l0 32 3 0c2,1 5,0 7,0 1,0 3,0 4,-1 2,0 3,-1 4,-2 1,-1 1,-2 2,-3 1,-1 1,-2 2,-4 0,-2 0,-3 0,-5 0,-3 0,-6 -1,-8 0,-2 -1,-3 -3,-5 -1,-1 -3,-2 -5,-3 -2,-1 -4,-1 -7,-1l-6 0z"/>
   <path id="2" class="fil2" d="M1590 767l0 30 1 0c2,1 5,0 6,-1 2,0 3,-1 4,-3 1,-1 2,-3 3,-5 1,-3 1,-5 1,-8l2 0 0 39 -2 0c0,-2 0,-4 -1,-6 0,-2 -1,-3 -1,-4 -1,-2 -2,-3 -3,-4 0,-1 -1,-1 -2,-2 -1,0 -2,-1 -4,-1 -1,0 -3,0 -4,0l0 20c0,3 0,4 0,6 0,1 0,2 0,2 0,0 1,1 1,1 0,1 1,1 1,1 1,1 1,1 2,1 1,0 2,0 3,0l4 0c4,0 7,0 9,-1 3,-1 6,-2 8,-4 2,-1 4,-3 5,-6 2,-2 3,-5 4,-8l2 0 -4 23 -64 0 0 -2 3 0c1,0 2,0 3,0 1,0 1,-1 2,-1 0,0 1,-1 1,-1 1,0 1,-1 1,-2 0,0 1,-1 1,-2 0,-1 0,-3 0,-4l0 -49c0,-2 0,-3 0,-4 0,-1 0,-2 -1,-2 0,-1 0,-2 0,-2 -1,-1 -1,-1 -2,-1 0,-1 -1,-1 -2,-1 -1,-1 -2,-1 -3,-1l-3 0 0 -2 62 0 0 22 -2 0c0,-3 -1,-5 -2,-7 0,-2 -1,-3 -2,-4 -1,-2 -2,-3 -4,-4 -1,0 -3,-1 -4,-2 -1,0 -3,0 -5,0 -2,-1 -4,-1 -7,-1l-7 0z"/>
   <path id="3" class="fil2" d="M1688 816l-27 0 -3 7c0,1 -1,3 -1,4 0,1 0,2 0,2 0,1 0,2 0,3 1,1 1,1 2,2 1,0 2,0 3,1 1,0 3,0 5,0l0 2 -25 0 0 -2c1,0 2,0 3,-1 2,0 3,-1 3,-2 1,-1 2,-2 3,-4 1,-2 3,-4 4,-7l26 -59 1 0 27 60c1,3 2,6 3,7 2,2 2,4 3,4 1,1 2,1 2,2 1,0 2,0 3,0l0 2 -35 0 0 -2 1 0c2,0 3,0 4,0 1,0 2,-1 2,-1 1,0 1,-1 1,-1 0,-1 0,-1 0,-2 0,0 0,0 0,-1 0,0 0,0 0,-1 0,0 0,0 0,-1 -1,0 -1,-1 -2,-3l-3 -9zm-2 -4l-11 -25 -12 25 23 0z"/>
   <path id="4" class="fil2" d="M1791 763l0 20 -2 0c0,-2 -1,-4 -1,-6 -1,-1 -2,-3 -3,-4 0,-1 -1,-2 -2,-3 -1,0 -2,-1 -3,-2 -1,0 -2,0 -3,0 -1,-1 -3,-1 -5,-1l-5 0 0 57c0,2 0,4 0,5 0,1 0,2 0,3 1,0 1,1 1,1 1,0 1,1 2,1 1,0 1,1 2,1 1,0 2,0 3,0l2 0 0 2 -38 0 0 -2 2 0c1,0 2,0 3,0 1,0 2,-1 2,-1 1,0 1,-1 2,-1 0,0 0,-1 1,-2 0,0 0,-1 0,-2 0,-1 0,-3 0,-4l0 -58 -5 0c-3,0 -5,1 -7,1 -2,1 -3,2 -4,3 -2,1 -3,3 -4,5 -1,2 -2,5 -2,7l-2 0 0 -20 66 0z"/>
   <path id="5" class="fil2" d="M1833 767l0 30 2 0c2,1 4,0 6,-1 1,0 3,-1 4,-3 1,-1 2,-3 2,-5 1,-3 2,-5 2,-8l2 0 0 39 -2 0c0,-2 -1,-4 -1,-6 -1,-2 -1,-3 -2,-4 -1,-2 -1,-3 -2,-4 -1,-1 -2,-1 -3,-2 -1,0 -2,-1 -3,-1 -2,0 -3,0 -5,0l0 20c0,3 0,4 0,6 0,1 0,2 1,2 0,0 0,1 0,1 1,1 1,1 2,1 0,1 1,1 1,1 1,0 2,0 3,0l5 0c3,0 6,0 9,-1 3,-1 5,-2 7,-4 2,-1 4,-3 6,-6 1,-2 2,-5 3,-8l2 0 -3 23 -64 0 0 -2 2 0c1,0 2,0 3,0 1,0 2,-1 2,-1 1,0 1,-1 2,-1 0,0 0,-1 1,-2 0,0 0,-1 0,-2 0,-1 0,-3 0,-4l0 -49c0,-2 0,-3 0,-4 0,-1 0,-2 0,-2 0,-1 -1,-2 -1,-2 0,-1 -1,-1 -1,-1 -1,-1 -2,-1 -2,-1 -1,-1 -2,-1 -4,-1l-2 0 0 -2 62 0 0 22 -2 0c-1,-3 -1,-5 -2,-7 -1,-2 -2,-3 -3,-4 -1,-2 -2,-3 -3,-4 -2,0 -3,-1 -5,-2 -1,0 -2,0 -4,0 -2,-1 -4,-1 -7,-1l-8 0z"/>
   <path id="6" class="fil2" d="M1962 798c4,1 7,2 9,3 3,1 5,2 6,3 2,2 4,4 5,6 1,2 1,4 1,7 0,3 -1,5 -2,7 -1,3 -2,5 -5,7 -2,2 -6,3 -10,5 -4,1 -8,1 -14,1l-37 0 0 -2c1,0 3,0 4,0 1,0 2,0 3,-1 0,0 1,0 1,-1 1,0 1,-1 1,-1 1,-1 1,-2 1,-3 0,-1 0,-3 0,-5l0 -48c0,-2 0,-3 0,-5 0,-1 0,-2 -1,-2 0,-1 0,-1 -1,-2 0,0 -1,-1 -1,-1 -1,0 -2,0 -3,-1 -1,0 -3,0 -4,0l0 -2 35 0c5,0 8,0 11,1 3,0 5,1 7,1 2,1 4,2 5,3 1,1 3,3 4,4 1,2 1,3 2,5 0,1 1,3 1,5 0,2 -1,3 -1,5 -1,1 -2,3 -3,4 -2,2 -3,3 -6,4 -2,1 -5,2 -8,3l0 0zm-20 -2c3,0 5,0 7,0 2,0 4,-1 5,-1 1,-1 2,-2 3,-2 1,-1 2,-2 2,-3 1,-1 1,-2 2,-4 0,-1 0,-3 0,-4 0,-2 0,-3 0,-5 -1,-1 -1,-2 -2,-3 0,-1 -1,-2 -2,-3 -1,-1 -2,-2 -3,-2 -1,-1 -3,-1 -5,-1 -2,-1 -4,-1 -7,-1l0 29zm0 5l0 23 0 3c0,1 0,2 1,3 0,1 0,1 1,2 0,0 1,1 2,1 0,0 1,0 2,0 2,0 3,0 4,0 2,-1 3,-1 4,-2 1,0 3,-1 3,-2 1,-1 2,-2 3,-3 1,-2 1,-3 1,-4 1,-2 1,-3 1,-5 0,-1 0,-3 -1,-4 0,-2 -1,-3 -2,-5 0,-1 -1,-3 -2,-3 -1,-1 -3,-2 -4,-3 -2,0 -3,-1 -5,-1 -3,0 -5,0 -8,0l0 0z"/>
   <path id="7" class="fil2" d="M2025 767l0 30 1 0c3,1 5,0 6,-1 2,0 3,-1 4,-3 1,-1 2,-3 3,-5 1,-3 1,-5 1,-8l2 0 0 39 -2 0c0,-2 0,-4 -1,-6 0,-2 -1,-3 -1,-4 -1,-2 -2,-3 -3,-4 0,-1 -1,-1 -2,-2 -1,0 -2,-1 -4,-1 -1,0 -3,0 -4,0l0 20c0,3 0,4 0,6 0,1 0,2 0,2 0,0 1,1 1,1 0,1 1,1 1,1 1,1 1,1 2,1 1,0 2,0 3,0l4 0c4,0 7,0 9,-1 3,-1 6,-2 8,-4 2,-1 4,-3 5,-6 2,-2 3,-5 4,-8l2 0 -4 23 -64 0 0 -2 3 0c1,0 2,0 3,0 1,0 1,-1 2,-1 1,0 1,-1 1,-1 1,0 1,-1 1,-2 0,0 1,-1 1,-2 0,-1 0,-3 0,-4l0 -49c0,-2 0,-3 0,-4 0,-1 0,-2 0,-2 -1,-1 -1,-2 -1,-2 -1,-1 -1,-1 -1,-1 -1,-1 -2,-1 -3,-1 -1,-1 -2,-1 -3,-1l-3 0 0 -2 62 0 0 22 -2 0c0,-3 -1,-5 -2,-7 0,-2 -1,-3 -2,-4 -1,-2 -2,-3 -4,-4 -1,0 -2,-1 -4,-2 -1,0 -3,0 -5,0 -1,-1 -4,-1 -7,-1l-7 0z"/>
   <path id="8" class="fil2" d="M2147 763l0 20 -2 0c-1,-2 -2,-4 -2,-6 -1,-1 -2,-3 -2,-4 -1,-1 -2,-2 -3,-3 -1,0 -2,-1 -3,-2 -1,0 -2,0 -3,0 -1,-1 -3,-1 -4,-1l-6 0 0 57c0,2 0,4 0,5 0,1 1,2 1,3 0,0 0,1 1,1 0,0 1,1 1,1 1,0 2,1 2,1 1,0 2,0 3,0l3 0 0 2 -39 0 0 -2 2 0c1,0 2,0 3,0 1,0 2,-1 3,-1 0,0 0,-1 1,-1 0,0 1,-1 1,-2 0,0 0,-1 0,-2 0,-1 0,-3 0,-4l0 -58 -5 0c-3,0 -5,1 -6,1 -2,1 -4,2 -5,3 -1,1 -3,3 -4,5 -1,2 -2,5 -2,7l-2 0 0 -20 67 0z"/>
   <path id="9" class="fil2" d="M2228 763l0 20 -2 0c0,-2 -1,-4 -1,-6 -1,-1 -2,-3 -2,-4 -1,-1 -2,-2 -3,-3 -1,0 -2,-1 -3,-2 -1,0 -2,0 -3,0 -1,-1 -3,-1 -5,-1l-5 0 0 57c0,2 0,4 0,5 0,1 0,2 1,3 0,0 0,1 1,1 0,0 0,1 1,1 1,0 1,1 2,1 1,0 2,0 3,0l3 0 0 2 -39 0 0 -2 2 0c1,0 2,0 3,0 1,0 2,-1 2,-1 1,0 1,-1 2,-1 0,0 0,-1 1,-2 0,0 0,-1 0,-2 0,-1 0,-3 0,-4l0 -58 -5 0c-3,0 -5,1 -7,1 -1,1 -3,2 -4,3 -2,1 -3,3 -4,5 -1,2 -2,5 -2,7l-2 0 0 -20 66 0z"/>
   <path id="10" class="fil2" d="M2270 767l0 30 2 0c2,1 4,0 6,-1 1,0 3,-1 4,-3 1,-1 2,-3 2,-5 1,-3 2,-5 2,-8l2 0 0 39 -2 0c0,-2 -1,-4 -1,-6 -1,-2 -1,-3 -2,-4 -1,-2 -1,-3 -2,-4 -1,-1 -2,-1 -3,-2 -1,0 -2,-1 -3,-1 -1,0 -3,0 -5,0l0 20c0,3 0,4 0,6 0,1 1,2 1,2 0,0 0,1 0,1 1,1 1,1 2,1 0,1 1,1 1,1 1,0 2,0 3,0l5 0c3,0 6,0 9,-1 3,-1 5,-2 7,-4 2,-1 4,-3 6,-6 1,-2 2,-5 3,-8l2 0 -3 23 -64 0 0 -2 2 0c1,0 2,0 3,0 1,0 2,-1 3,-1 0,0 0,-1 1,-1 0,0 0,-1 1,-2 0,0 0,-1 0,-2 0,-1 0,-3 0,-4l0 -49c0,-2 0,-3 0,-4 0,-1 0,-2 0,-2 0,-1 0,-2 -1,-2 0,-1 -1,-1 -1,-1 -1,-1 -1,-1 -2,-1 -1,-1 -2,-1 -4,-1l-2 0 0 -2 62 0 0 22 -2 0c-1,-3 -1,-5 -2,-7 -1,-2 -2,-3 -3,-4 -1,-2 -2,-3 -3,-4 -1,0 -3,-1 -5,-2 -1,0 -2,0 -4,0 -2,-1 -4,-1 -7,-1l-8 0z"/>
   <path id="11" class="fil2" d="M2351 803l0 21c0,2 0,4 0,5 0,1 1,2 1,3 0,0 1,1 1,1 0,1 1,1 2,1 0,1 1,1 2,1 1,0 3,0 4,0l0 2 -37 0 0 -2c1,0 3,0 4,0 1,0 2,0 3,-1 0,0 1,0 1,-1 1,0 1,-1 1,-1 0,-1 1,-2 1,-3 0,-1 0,-3 0,-5l0 -48c0,-2 0,-3 0,-5 0,-1 -1,-2 -1,-2 0,-1 0,-1 -1,-2 0,0 -1,-1 -1,-1 -1,0 -2,0 -3,-1 -1,0 -3,0 -4,0l0 -2 34 0c4,0 8,0 12,1 3,0 6,0 8,1 2,1 4,1 5,3 2,1 4,2 5,4 1,2 2,3 3,5 0,2 1,4 1,7 0,2 -1,5 -2,7 -1,2 -2,4 -4,6 -1,1 -3,2 -5,3 -1,1 -4,2 -6,2l18 25c1,2 2,3 3,4 1,1 2,2 2,2 1,1 2,1 2,2 1,0 2,0 3,0l0 2 -23 0 -24 -34 -5 0zm0 -36l0 32 3 0c3,1 5,0 7,0 2,0 3,0 5,-1 1,0 2,-1 3,-2 1,-1 2,-2 3,-3 0,-1 1,-2 1,-4 1,-2 1,-3 1,-5 0,-3 -1,-6 -1,-8 -1,-2 -2,-3 -3,-5 -1,-1 -3,-2 -5,-3 -2,-1 -5,-1 -8,-1l-6 0z"/>
   <path id="12" class="fil2" d="M2574 763l0 2c0,0 -1,0 -2,1 0,0 -1,0 -1,0 -1,1 -1,1 -1,2 -1,0 -1,1 -2,1 0,1 0,1 -1,3 0,1 -1,3 -2,6l-23 61 -2 0 -19 -48 -20 48 -2 0 -24 -61c-2,-3 -3,-5 -3,-7 -1,-2 -2,-3 -3,-4 0,0 -1,-1 -2,-1 0,-1 -1,-1 -3,-1l0 -2 33 0 0 2c-2,0 -3,0 -4,1 0,0 -1,0 -2,0 0,1 0,1 0,1 -1,1 -1,1 -1,2 0,1 0,2 1,3 0,2 1,4 2,6l14 36 12 -28 -3 -8c-1,-2 -2,-4 -2,-6 -1,-1 -1,-2 -2,-3 0,-1 -1,-1 -1,-2 -1,0 -1,-1 -2,-1 -1,0 -1,0 -2,-1 -1,0 -2,0 -3,0l0 -2 36 0 0 2c-2,0 -3,0 -4,0 -1,1 -1,1 -2,1 0,0 0,0 -1,0 0,0 0,1 -1,1 0,0 0,1 0,1 0,0 0,1 0,1 0,1 0,1 0,3 1,1 1,3 2,5l14 35 12 -32c0,-2 1,-3 1,-4 1,-1 1,-2 1,-3 0,0 0,0 0,-1 0,0 0,0 0,-1 1,0 1,0 1,0 0,-1 0,-1 0,-1 0,-1 -1,-1 -1,-2 0,0 0,-1 -1,-1 -1,-1 -1,-1 -2,-1 -1,-1 -2,-1 -4,-1l0 -2 19 0z"/>
   <path id="13" class="fil2" d="M2626 762c6,0 11,1 16,2 5,2 9,5 13,8 3,4 6,8 8,13 2,4 3,9 3,15 0,5 -1,9 -2,13 -2,4 -4,8 -7,12 -3,4 -8,8 -13,10 -5,3 -11,4 -17,4 -7,0 -13,-1 -18,-4 -5,-2 -10,-5 -13,-10 -3,-3 -5,-7 -7,-11 -1,-5 -2,-9 -2,-14 0,-6 1,-11 3,-15 2,-5 5,-9 8,-12 4,-4 8,-7 13,-9 4,-1 9,-2 15,-2l0 0zm1 3c-4,1 -7,1 -9,3 -3,2 -5,4 -7,8 -1,3 -2,6 -3,10 -1,5 -1,9 -1,14 0,7 0,12 1,17 2,5 3,8 5,11 2,3 4,4 6,5 2,1 5,2 7,2 2,0 4,0 6,-1 1,0 3,-1 4,-2 1,-1 3,-3 4,-4 1,-2 2,-4 3,-7 1,-3 2,-6 2,-9 1,-3 1,-7 1,-11 0,-5 0,-9 -1,-13 0,-4 -1,-7 -2,-9 -1,-2 -2,-5 -3,-6 -1,-2 -2,-3 -4,-4 -1,-1 -3,-2 -4,-3 -2,0 -4,0 -5,0l0 -1z"/>
   <path id="14" class="fil2" d="M2707 803l0 21c0,2 0,4 0,5 0,1 0,2 0,3 1,0 1,1 1,1 1,1 1,1 2,1 1,1 1,1 3,1 1,0 2,0 4,0l0 2 -38 0 0 -2c2,0 3,0 4,0 1,0 2,0 3,-1 1,0 1,0 2,-1 0,0 0,-1 1,-1 0,-1 0,-2 0,-3 0,-1 0,-3 0,-5l0 -48c0,-2 0,-3 0,-5 0,-1 0,-2 0,-2 -1,-1 -1,-1 -1,-2 -1,0 -1,-1 -2,-1 -1,0 -2,0 -3,-1 -1,0 -2,0 -4,0l0 -2 34 0c5,0 9,0 12,1 3,0 6,0 8,1 2,1 4,1 6,3 1,1 3,2 4,4 2,2 3,3 3,5 1,2 1,4 1,7 0,2 0,5 -1,7 -1,2 -3,4 -5,6 -1,1 -2,2 -4,3 -2,1 -4,2 -6,2l18 25c1,2 2,3 2,4 1,1 2,2 3,2 0,1 1,1 2,2 1,0 2,0 3,0l0 2 -24 0 -23 -34 -5 0zm0 -36l0 32 3 0c2,1 5,0 6,0 2,0 4,0 5,-1 1,0 3,-1 4,-2 1,-1 1,-2 2,-3 1,-1 1,-2 2,-4 0,-2 0,-3 0,-5 0,-3 0,-6 -1,-8 0,-2 -1,-3 -3,-5 -1,-1 -3,-2 -5,-3 -2,-1 -5,-1 -8,-1l-5 0z"/>
   <path id="15" class="fil2" d="M2836 811l-3 26 -66 0 0 -2 3 0c1,0 2,0 2,0 1,0 2,-1 3,-1 0,0 1,-1 1,-1 0,0 1,-1 1,-2 0,0 0,-1 0,-2 0,-1 0,-3 0,-4l0 -49c0,-2 0,-4 0,-5 0,-1 0,-2 0,-2 0,-1 -1,-1 -1,-2 0,0 -1,0 -2,-1 0,0 -1,0 -2,-1 0,0 -1,0 -2,0l-3 0 0 -2 40 0 0 2 -4 0c-1,0 -2,0 -3,0 0,1 -1,1 -2,1 0,1 -1,1 -1,1 -1,1 -1,1 -1,2 0,0 0,1 -1,2 0,2 0,3 0,5l0 47c0,2 0,3 0,5 1,1 1,2 1,2 0,1 1,1 1,2 0,0 1,0 2,1 0,0 1,0 2,0 1,0 2,0 4,0l6 0c2,0 4,0 6,0 1,-1 3,-1 4,-2 1,-1 3,-2 4,-3 1,-1 2,-2 3,-4 1,-1 2,-3 3,-5 1,-2 2,-5 2,-8l3 0z"/>
   <path id="16" class="fil2" d="M2848 837l0 -2 3 0c1,0 2,0 3,0 1,0 1,-1 2,-1 0,0 1,-1 1,-1 1,-1 1,-1 1,-2 0,0 1,-1 1,-2 0,-1 0,-3 0,-4l0 -49c0,-2 0,-4 0,-5 -1,-1 -1,-2 -1,-2 0,-1 0,-1 -1,-2 0,0 -1,0 -1,-1 -1,0 -2,0 -2,-1 -1,0 -2,0 -3,0l-3 0 0 -2 33 0c5,0 9,0 12,1 4,1 7,2 10,3 3,1 6,3 9,5 2,3 4,5 6,8 2,3 3,6 4,10 1,3 1,7 1,10 0,3 0,6 -1,8 0,2 -1,5 -2,7 0,2 -1,4 -2,6 -2,2 -3,3 -4,5 -1,1 -3,2 -4,4 -2,1 -4,2 -5,3 -2,0 -4,1 -6,2 -2,1 -4,1 -7,2 -1,0 -3,0 -4,0 -2,0 -4,0 -7,0l-33 0zm29 -70l0 58c0,2 0,3 0,4 0,1 0,1 0,2 0,0 0,0 1,1 0,0 0,0 0,0 1,1 1,1 2,1 1,0 2,0 3,0 3,0 5,0 8,-1 2,-1 4,-3 6,-5 2,-3 3,-6 5,-11 1,-4 1,-9 1,-15 0,-5 0,-9 -1,-13 -1,-4 -2,-7 -3,-10 -1,-2 -3,-4 -4,-6 -2,-1 -4,-2 -5,-3 -2,-1 -3,-1 -6,-1 -2,0 -4,-1 -7,-1l0 0z"/>
   <rect class="fil3" x="1027" y="675" width="2201.33" height="10.8264"/>
  </g>
 </g>
</svg>
