<?xml version="1.0" encoding="UTF-8"?>
<!DOCTYPE svg PUBLIC "-//W3C//DTD SVG 1.1//EN" "http://www.w3.org/Graphics/SVG/1.1/DTD/svg11.dtd">
<!-- Creator: CorelDRAW X7 -->
<svg xmlns="http://www.w3.org/2000/svg" xml:space="preserve" width="8.3548in" height="2.37893in" version="1.1" style="shape-rendering:geometricPrecision; text-rendering:geometricPrecision; image-rendering:optimizeQuality; fill-rule:evenodd; clip-rule:evenodd"
viewBox="0 0 8355 2379"
 xmlns:xlink="http://www.w3.org/1999/xlink">
 <defs>
  <style type="text/css">
   <![CDATA[
    .str0 {stroke:#302861;stroke-width:13.8858}
    .fil2 {fill:none}
    .fil0 {fill:#302861}
    .fil1 {fill:#302861;fill-rule:nonzero}
   ]]>
  </style>
 </defs>
 <g id="Layer_x0020_1">
  <metadata id="CorelCorpID_0Corel-Layer"/>
  <g id="_1830741311488">
   <g>
    <g>
     <path class="fil0" d="M1085 995c-26,7 -46,21 -59,39 -26,38 -45,115 -59,229 -14,114 -9,212 15,293 5,20 17,35 34,44 18,9 36,11 54,5 19,-6 34,-16 46,-31 17,-22 33,-66 48,-130 15,-65 23,-133 24,-205 1,-72 -6,-136 -22,-191 -7,-23 -18,-39 -34,-48 -15,-8 -31,-10 -47,-5zm-463 97c20,-10 39,-11 57,-4 18,6 29,19 35,37 6,19 3,37 -7,57 -10,19 -25,33 -44,42 -20,9 -39,10 -57,4 -18,-7 -29,-19 -35,-38 -6,-18 -4,-37 6,-56 10,-19 25,-33 45,-42zm483 -141c38,-12 76,-15 115,-9 38,5 70,20 95,43 26,23 43,52 53,86 21,71 19,149 -5,233 -23,84 -65,158 -125,221 -60,63 -127,105 -200,127 -66,21 -122,19 -168,-6 -27,-14 -49,-33 -66,-57 -25,84 -62,133 -112,147 -21,6 -39,4 -55,-4 -16,-8 -26,-21 -31,-39 -3,-12 -5,-28 -5,-48l2 -249c1,-24 -1,-42 -4,-53 -2,-7 -7,-12 -14,-16 -8,-4 -17,-4 -28,-1 -5,1 -10,3 -17,5l1 -21 156 -73 29 -8 -3 371c0,21 1,35 3,41 1,3 3,6 7,8 4,3 7,3 11,2 5,-1 10,-5 14,-12 10,-15 21,-40 32,-74 -5,-10 -9,-21 -12,-32 -17,-61 -20,-122 -9,-184 12,-61 33,-118 63,-170 30,-52 69,-99 116,-140 46,-41 99,-71 157,-88zm582 -467l-9 224 132 -41 -7 95 -128 44 -30 479c-2,30 0,52 4,65 2,7 7,11 14,14 7,2 15,2 22,0 11,-4 22,-11 31,-22 25,-28 51,-69 78,-125l39 4c-26,74 -63,134 -109,180 -46,45 -95,78 -148,96 -45,15 -82,18 -112,10 -30,-8 -49,-25 -58,-51 -9,-28 -12,-67 -9,-117l30 -448 -135 46 3 -60c77,-52 139,-103 188,-154 41,-43 121,-155 181,-246l23 7z"/>
     <path class="fil0" d="M845 659c443,-284 960,-269 1155,33 32,50 53,104 64,162l-20 9c-10,-58 -31,-112 -63,-162 -185,-287 -674,-301 -1093,-33 -419,269 -609,719 -424,1006 185,287 675,302 1093,33 329,-211 517,-534 493,-802l21 -10c32,285 -168,633 -521,859 -443,284 -960,269 -1154,-33 -195,-302 6,-778 449,-1062z"/>
    </g>
    <path class="fil1" d="M7839 770l0 200c5,1 11,2 17,3 5,0 12,0 20,0 53,0 89,-9 109,-28 20,-19 30,-52 30,-100 0,-47 -9,-80 -26,-99 -18,-19 -49,-29 -93,-29 -25,0 -40,3 -47,9 -6,6 -10,21 -10,44zm0 421c0,17 3,29 7,35 5,5 15,8 29,8l46 0 0 44 -289 0 0 -44 39 0c15,0 25,-3 30,-8 5,-6 8,-17 8,-35l0 -430c0,-18 -3,-30 -8,-36 -5,-5 -15,-8 -30,-8l-39 0 0 -44 322 0c66,0 116,15 150,44 34,29 51,72 51,128 0,59 -20,103 -60,132 -39,28 -100,42 -183,42 -19,0 -33,0 -43,0 -11,0 -20,0 -29,0l-1 172z"/>
    <path class="fil1" d="M7218 673l0 44 -36 0c-14,0 -24,3 -29,9 -5,5 -7,17 -7,35l0 310c0,56 10,96 30,122 19,24 49,44 91,45 41,-1 71,-21 90,-45 20,-26 30,-66 30,-122l0 -310c0,-18 -2,-30 -7,-35 -5,-6 -15,-9 -29,-9l-36 0 0 -44 271 0 0 44 -36 0c-14,0 -24,3 -29,9 -5,5 -7,17 -7,35l0 330c0,67 -16,114 -52,148 -35,34 -88,51 -158,51 -24,0 -49,0 -73,0 -70,0 -123,-17 -158,-51 -36,-34 -54,-81 -54,-148l0 -330c0,-18 -2,-30 -7,-35 -5,-6 -15,-9 -29,-9l-36 0 0 -44 271 0z"/>
    <path class="fil1" d="M6365 976c0,-45 7,-87 19,-125 13,-38 31,-72 56,-101 25,-31 55,-54 88,-69 33,-15 70,-23 112,-23 43,0 81,8 114,23 33,15 62,39 89,70 24,29 42,63 54,101 13,38 19,79 19,124 0,46 -6,87 -17,122 -12,34 -30,67 -55,96 -27,33 -57,57 -92,74 -34,16 -71,25 -112,25 -41,0 -78,-8 -111,-24 -33,-16 -63,-40 -90,-73 -25,-30 -44,-63 -56,-98 -12,-35 -18,-76 -18,-122zm146 0c0,92 11,160 32,204 21,44 53,67 97,67 44,0 76,-23 98,-68 21,-44 32,-112 32,-203 0,-92 -11,-160 -32,-204 -21,-45 -54,-67 -98,-67 -43,0 -76,23 -97,67 -21,45 -32,113 -32,204z"/>
    <path class="fil1" d="M5974 763l0 180c4,1 9,1 13,1 4,1 10,1 18,1 55,0 94,-9 116,-26 21,-17 32,-47 32,-90 0,-41 -9,-70 -27,-87 -18,-17 -50,-25 -95,-25 -25,0 -41,3 -47,8 -6,5 -10,18 -10,38zm0 225l0 202c0,17 2,29 7,35 5,6 15,9 30,9l39 0 0 44 -281 0 0 -44 39 0c15,0 25,-3 30,-9 5,-6 7,-18 7,-35l0 -429c0,-17 -2,-29 -7,-35 -5,-6 -15,-9 -30,-9l-39 0 0 -44 322 0c64,0 113,13 146,39 33,26 50,65 50,115 0,44 -15,80 -43,106 -29,26 -95,42 -120,42 23,5 66,8 94,33 54,51 7,223 70,225l51 2 0 46 -110 2c-20,1 -48,-1 -66,-11 -5,-2 -10,-6 -14,-9 -11,-9 -20,-18 -26,-32 -9,-20 -14,-52 -14,-97 0,-14 -1,-20 -1,-27 -3,-50 -11,-83 -25,-98 -14,-15 -41,-22 -80,-22 -7,0 -13,0 -17,0 -4,0 -8,0 -12,1z"/>
    <path class="fil1" d="M5541 1085c0,-17 -3,-29 -8,-35 -5,-7 -15,-10 -29,-10l-39 0 0 -43 260 0 0 43 -28 0c-14,0 -24,3 -29,10 -5,5 -8,16 -8,31l0 212 -115 0 0 -40c-9,7 -19,13 -30,19 -30,14 -62,21 -97,21 -29,0 -57,-5 -84,-14 -26,-10 -51,-25 -73,-44 -34,-29 -60,-65 -77,-109 -18,-43 -27,-93 -27,-150 0,-53 9,-101 28,-146 18,-44 45,-82 79,-112 23,-20 48,-35 78,-45 29,-10 61,-16 96,-16 30,0 57,4 81,13 23,8 38,17 58,37 11,10 22,24 33,40l-1 -84 34 0 0 241 -37 0c-15,-64 -21,-113 -52,-148 -31,-36 -67,-53 -107,-53 -49,0 -85,22 -109,67 -23,44 -35,113 -35,207 0,93 10,161 31,204 21,43 54,65 100,65 34,0 60,-12 79,-36 18,-24 28,-58 28,-102l0 -23z"/>
    <path class="fil1" d="M4726 1073c-13,72 -39,127 -79,164 -39,38 -90,57 -153,57 -31,0 -60,-5 -88,-14 -27,-10 -52,-25 -74,-44 -35,-31 -61,-68 -79,-112 -18,-45 -27,-94 -27,-148 0,-42 6,-82 18,-119 12,-37 29,-70 52,-100 25,-33 55,-57 88,-73 34,-16 72,-24 115,-24 27,0 51,4 73,11 23,8 44,20 63,36l32 35 2 -79 37 0 5 248 -37 -1c-15,-68 -32,-120 -61,-155 -29,-35 -63,-52 -104,-52 -48,0 -82,21 -104,63 -22,42 -33,111 -33,205 0,96 12,165 34,206 23,41 61,61 113,61 41,0 76,-15 105,-46 28,-31 49,-76 63,-134l39 15z"/>
    <path class="fil1" d="M3983 849c-6,-52 -11,-139 -118,-136 -13,0 -22,3 -26,8 -5,6 -7,17 -7,34l0 436c0,18 3,29 8,35 5,5 14,8 29,8l36 0 0 44 -276 0 0 -44 36 0c15,0 24,-3 29,-8 5,-5 7,-17 7,-35l0 -436c0,-17 -2,-28 -6,-34 -4,-6 -13,-8 -26,-8 -97,-5 -112,84 -118,136l-36 0 11 -176 481 0 12 176 -36 0z"/>
    <path class="fil1" d="M2801 976c0,-45 6,-87 19,-125 13,-38 31,-72 56,-101 25,-31 55,-54 88,-69 33,-15 70,-23 112,-23 43,0 81,8 114,23 33,15 62,39 89,70 23,29 42,63 54,101 13,38 19,79 19,124 0,46 -6,87 -17,122 -12,34 -30,67 -55,96 -27,33 -58,57 -92,74 -34,16 -72,25 -112,25 -41,0 -78,-8 -111,-24 -33,-16 -63,-40 -90,-73 -25,-30 -44,-62 -56,-98 -12,-35 -18,-76 -18,-122zm146 0c0,92 11,160 32,204 21,44 53,67 97,67 44,0 76,-23 98,-68 21,-44 32,-112 32,-203 0,-92 -11,-160 -32,-204 -21,-45 -54,-67 -98,-67 -43,0 -76,22 -97,67 -21,45 -32,113 -32,204z"/>
    <path class="fil1" d="M2614 673l0 44 -42 0c-14,0 -23,3 -28,8 -5,6 -8,18 -8,36l0 430c0,18 2,30 7,35 5,5 15,8 29,8l42 0 0 44 -287 0 0 -44 41 0c14,0 24,-3 29,-8 5,-6 8,-17 8,-35l0 -430c0,-18 -3,-30 -8,-36 -5,-5 -15,-8 -29,-8l-41 0 0 -44 287 0z"/>
    <path class="fil1" d="M2537 1528l0 61 -5 0c-2,-7 -4,-14 -8,-20 -4,-7 -8,-12 -13,-16 -5,-4 -11,-7 -17,-10 -6,-2 -12,-3 -19,-3 -5,0 -10,1 -15,3 -6,1 -10,4 -15,7 -4,3 -8,7 -12,11 -3,4 -6,8 -8,14 -3,6 -5,13 -6,20 -2,8 -2,15 -2,23 0,8 0,16 1,23 1,7 3,14 5,20 2,7 4,13 7,17 4,5 7,9 12,13 4,3 9,6 14,7 6,2 12,3 19,3 5,0 10,-1 15,-2 5,-1 10,-3 15,-6 5,-2 9,-5 14,-9 5,-5 10,-10 15,-16l0 15c-5,6 -10,10 -15,14 -5,4 -10,7 -16,9 -5,2 -11,4 -17,5 -6,1 -13,2 -20,2 -10,0 -19,-1 -27,-3 -8,-2 -16,-5 -23,-8 -8,-4 -14,-9 -20,-14 -5,-5 -10,-12 -14,-19 -4,-7 -7,-14 -9,-22 -2,-7 -3,-15 -3,-23 0,-8 1,-16 3,-24 2,-8 6,-16 10,-24 5,-7 10,-14 16,-20 5,-6 12,-11 20,-15 7,-4 15,-7 23,-9 8,-2 16,-4 24,-4 7,0 13,1 19,3 7,1 14,3 21,6 4,1 7,2 10,3 2,1 4,1 5,1 1,0 3,0 4,-1 1,0 2,-1 3,-2 1,-1 2,-2 3,-4 1,-1 1,-3 1,-6l5 0z"/>
    <path id="1" class="fil1" d="M2742 1628l0 50c0,5 0,9 1,12 0,3 0,5 1,6 1,1 1,2 2,3 2,1 3,2 4,3 2,1 4,1 7,2 2,0 6,0 10,0l0 5 -91 0 0 -5c4,0 8,0 11,0 2,-1 4,-1 6,-2 1,-1 3,-2 4,-3 1,-1 2,-2 2,-3 1,-1 1,-3 2,-6 0,-3 0,-7 0,-12l0 -115c0,-4 0,-8 0,-11 -1,-3 -1,-5 -2,-6 0,-2 -1,-3 -2,-4 -1,-1 -3,-2 -4,-2 -2,-1 -4,-2 -6,-2 -3,-1 -7,-1 -11,-1l0 -5 82 0c11,0 20,1 28,2 8,0 14,2 19,3 5,1 10,3 14,6 4,3 7,6 10,10 4,4 6,8 7,13 2,5 3,10 3,15 0,7 -1,13 -4,18 -2,5 -6,10 -10,14 -3,3 -7,5 -11,8 -4,2 -9,3 -14,5l42 59c3,4 5,7 7,10 2,2 4,4 5,5 2,1 4,2 6,3 2,1 4,1 6,1l0 5 -55 0 -57 -81 -12 0zm0 -86l0 77 8 0c6,0 11,0 16,0 4,-1 8,-2 11,-3 3,-1 6,-3 8,-5 2,-2 4,-4 6,-7 1,-3 3,-6 4,-10 1,-4 1,-8 1,-13 0,-6 -1,-12 -2,-17 -2,-5 -4,-9 -8,-12 -3,-4 -7,-6 -12,-8 -5,-1 -11,-2 -18,-2l-14 0z"/>
    <path id="2" class="fil1" d="M3056 1542l0 72 4 0c5,0 10,0 14,-2 4,-2 8,-5 10,-8 2,-4 5,-8 6,-13 2,-5 3,-11 4,-18l5 0 0 92 -5 0c-1,-5 -2,-9 -3,-13 -1,-5 -2,-8 -4,-11 -2,-4 -3,-6 -5,-8 -2,-3 -4,-4 -7,-5 -2,-1 -4,-2 -8,-3 -3,0 -7,-1 -11,-1l0 50c0,5 0,9 1,12 0,3 0,5 1,6 0,1 0,2 1,3 1,1 2,1 3,2 1,1 3,1 4,2 2,0 5,0 7,0l11 0c8,0 15,-1 22,-3 6,-1 12,-4 17,-8 5,-4 9,-9 13,-15 3,-5 6,-12 9,-20l4 0 -8 56 -152 0 0 -5 6 0c2,0 4,0 7,-1 2,0 4,-1 5,-2 1,0 2,-1 3,-2 1,-1 2,-2 2,-4 1,-1 1,-3 1,-5 1,-3 1,-7 1,-11l0 -116c0,-4 0,-8 0,-10 0,-2 -1,-4 -1,-5 0,-2 -1,-3 -2,-4 -1,-1 -2,-2 -3,-3 -1,-1 -3,-2 -5,-3 -3,0 -5,-1 -8,-1l-6 0 0 -5 148 0 0 52 -5 0c-2,-6 -3,-11 -5,-16 -2,-4 -4,-8 -6,-11 -2,-3 -5,-5 -8,-7 -3,-2 -7,-4 -11,-5 -3,-1 -6,-2 -11,-2 -4,0 -10,0 -17,0l-18 -1z"/>
    <path id="3" class="fil1" d="M3392 1658l-63 0 -7 18c-1,3 -2,5 -3,8 0,2 -1,4 -1,6 0,3 1,5 2,7 1,2 2,3 4,4 1,1 3,1 6,2 3,0 7,1 12,1l0 5 -59 0 0 -5c3,0 6,-1 9,-2 2,-2 5,-4 7,-6 2,-2 4,-5 6,-10 3,-4 6,-10 9,-16l63 -141 2 0 64 144c3,8 6,13 8,17 3,5 5,8 7,10 1,1 3,2 5,3 2,0 4,1 7,1l0 5 -85 0 0 -5 3 0c4,0 7,0 9,-1 3,0 5,-1 6,-2 1,0 2,-1 2,-2 0,-1 1,-2 1,-4 0,-1 0,-1 0,-2 -1,-1 -1,-2 -1,-3 0,0 -1,-1 -1,-2 -1,-2 -2,-4 -3,-7l-9 -23zm-5 -9l-26 -61 -27 61 53 0z"/>
    <path id="4" class="fil1" d="M3741 1532l0 48 -4 0c-2,-5 -3,-10 -5,-14 -1,-4 -3,-7 -5,-10 -1,-2 -3,-4 -6,-6 -2,-2 -4,-4 -7,-5 -2,-1 -5,-2 -7,-2 -3,0 -7,0 -11,0l-13 -1 0 136c0,5 0,9 0,12 1,3 1,5 2,6 0,1 1,2 2,3 1,1 2,2 3,3 2,0 4,1 6,1 2,1 4,1 6,1l6 0 0 5 -92 0 0 -5 6 0c2,0 4,0 7,-1 2,0 4,-1 5,-2 1,0 2,-1 3,-2 1,-1 2,-2 2,-4 1,-1 1,-3 1,-5 1,-3 1,-7 1,-11l0 -137 -13 0c-6,0 -11,1 -15,3 -5,1 -8,3 -11,5 -4,4 -7,8 -9,13 -3,5 -4,11 -5,17l-5 0 0 -48 158 0z"/>
    <path id="5" class="fil1" d="M3943 1542l0 72 4 0c5,0 10,0 14,-2 4,-2 7,-5 10,-8 2,-4 4,-8 6,-13 2,-5 3,-11 4,-18l4 0 0 92 -4 0c-1,-5 -2,-9 -3,-13 -1,-5 -2,-8 -4,-11 -2,-4 -4,-6 -5,-8 -2,-3 -4,-4 -7,-5 -2,-1 -5,-2 -8,-3 -3,0 -7,-1 -11,-1l0 50c0,5 0,9 0,12 1,3 1,5 1,6 1,1 1,2 2,3 1,1 2,1 3,2 1,1 2,1 4,2 2,0 4,0 7,0l11 0c8,0 15,-1 22,-3 6,-1 12,-4 17,-8 5,-4 9,-9 13,-15 3,-5 6,-12 9,-20l4 0 -8 56 -152 0 0 -5 6 0c2,0 4,0 6,-1 3,0 4,-1 6,-2 1,0 2,-1 3,-2 1,-1 2,-2 2,-4 1,-1 1,-3 1,-5 1,-3 1,-7 1,-11l0 -116c0,-4 0,-8 0,-10 -1,-2 -1,-4 -1,-5 -1,-2 -1,-3 -2,-4 -1,-1 -2,-2 -3,-3 -1,-1 -3,-2 -6,-3 -2,0 -4,-1 -7,-1l-6 0 0 -5 148 0 0 52 -6 0c-1,-6 -2,-11 -4,-16 -2,-4 -4,-8 -6,-11 -2,-3 -5,-5 -8,-7 -4,-2 -7,-4 -11,-5 -3,-1 -6,-2 -11,-2 -4,0 -10,0 -17,0l-18 -1z"/>
    <path id="6" class="fil1" d="M4397 1658l-62 0 -8 18c-1,3 -2,5 -2,8 -1,2 -1,4 -1,6 0,3 0,5 1,7 1,2 3,3 5,4 1,1 3,1 6,2 3,0 7,1 11,1l0 5 -59 0 0 -5c3,0 6,-1 9,-2 3,-2 5,-4 7,-6 2,-2 4,-5 7,-10 2,-4 5,-10 8,-16l63 -141 3 0 63 144c3,8 6,13 9,17 2,5 4,8 6,10 2,1 3,2 6,3 2,0 4,1 7,1l0 5 -86 0 0 -5 4 0c3,0 6,0 9,-1 2,0 4,-1 5,-2 1,0 2,-1 2,-2 1,-1 1,-2 1,-4 0,-1 0,-1 0,-2 0,-1 0,-2 -1,-3 0,0 0,-1 -1,-2 -1,-2 -1,-4 -2,-7l-10 -23zm-4 -9l-27 -61 -27 61 54 0z"/>
    <path id="7" class="fil1" d="M4835 1615c9,2 16,4 22,7 6,2 11,5 14,8 5,4 8,8 11,13 2,5 3,11 3,17 0,7 -1,13 -4,18 -2,6 -6,11 -12,15 -6,5 -14,9 -24,12 -9,2 -20,4 -33,4l-90 0 0 -5c5,0 8,0 11,0 3,-1 5,-1 6,-2 2,-1 3,-2 4,-3 1,-1 2,-2 2,-3 1,-1 1,-3 2,-6 0,-3 0,-7 0,-12l0 -115c0,-4 0,-8 0,-11 -1,-3 -1,-5 -2,-6 0,-2 -1,-3 -2,-4 -1,-1 -2,-2 -4,-2 -1,-1 -4,-2 -6,-2 -3,-1 -6,-1 -11,-1l0 -5 85 0c10,0 19,1 26,2 7,1 13,2 17,4 4,2 8,4 11,7 4,2 7,5 9,9 3,4 4,7 6,11 1,4 1,8 1,12 0,4 0,8 -2,12 -2,4 -4,7 -7,11 -3,3 -7,6 -13,9 -5,2 -12,4 -20,6l0 0zm-47 -3c6,0 12,-1 16,-1 5,-1 9,-2 11,-3 3,-2 6,-3 8,-5 3,-2 4,-4 6,-7 1,-2 3,-5 3,-9 1,-3 2,-6 2,-10 0,-4 -1,-8 -2,-11 0,-3 -2,-6 -3,-9 -2,-2 -3,-4 -6,-6 -2,-2 -4,-3 -7,-5 -3,-1 -7,-2 -11,-3 -5,0 -11,-1 -17,-1l0 70zm0 10l0 56 0 7c0,2 0,4 1,6 1,2 1,4 3,5 1,1 2,2 4,2 2,1 4,1 6,1 4,0 7,0 10,-1 3,-1 6,-2 9,-3 3,-2 6,-4 8,-6 2,-2 4,-5 6,-8 2,-3 3,-6 3,-9 1,-3 1,-7 1,-10 0,-4 0,-8 -1,-12 -1,-4 -2,-7 -4,-10 -2,-4 -4,-7 -7,-9 -2,-2 -6,-4 -9,-5 -3,-2 -7,-2 -12,-3 -5,-1 -11,-1 -18,-1l0 0z"/>
    <path id="8" class="fil1" d="M5087 1542l0 72 3 0c6,0 11,0 15,-2 4,-2 7,-5 10,-8 2,-4 4,-8 6,-13 1,-5 3,-11 3,-18l5 0 0 92 -5 0c0,-5 -1,-9 -2,-13 -1,-5 -3,-8 -4,-11 -2,-4 -4,-6 -6,-8 -2,-3 -4,-4 -6,-5 -2,-1 -5,-2 -8,-3 -3,0 -7,-1 -11,-1l0 50c0,5 0,9 0,12 0,3 1,5 1,6 1,1 1,2 2,3 0,1 1,1 3,2 1,1 2,1 4,2 2,0 4,0 7,0l10 0c8,0 16,-1 22,-3 7,-1 13,-4 18,-8 5,-4 9,-9 12,-15 4,-5 7,-12 9,-20l5 0 -8 56 -152 0 0 -5 5 0c3,0 5,0 7,-1 2,0 4,-1 6,-2 1,0 2,-1 3,-2 1,-1 1,-2 2,-4 0,-1 1,-3 1,-5 0,-3 0,-7 0,-11l0 -116c0,-4 0,-8 0,-10 0,-2 0,-4 0,-5 -1,-2 -2,-3 -2,-4 -1,-1 -2,-2 -3,-3 -2,-1 -4,-2 -6,-3 -2,0 -5,-1 -8,-1l-5 0 0 -5 147 0 0 52 -5 0c-1,-6 -3,-11 -4,-16 -2,-4 -4,-8 -6,-11 -3,-3 -5,-5 -9,-7 -3,-2 -7,-4 -11,-5 -2,-1 -5,-2 -10,-2 -5,0 -10,0 -17,0l-18 -1z"/>
    <path id="9" class="fil1" d="M5479 1532l0 48 -4 0c-2,-5 -3,-10 -4,-14 -2,-4 -4,-7 -5,-10 -2,-2 -4,-4 -6,-6 -3,-2 -5,-4 -8,-5 -2,-1 -4,-2 -7,-2 -3,0 -7,0 -11,0l-13 -1 0 136c0,5 0,9 1,12 0,3 0,5 1,6 0,1 1,2 2,3 1,1 2,2 4,3 1,0 3,1 5,1 2,1 4,1 7,1l5 0 0 5 -92 0 0 -5 6 0c2,0 5,0 7,-1 2,0 4,-1 5,-2 1,0 2,-1 3,-2 1,-1 2,-2 3,-4 0,-1 0,-3 1,-5 0,-3 0,-7 0,-11l0 -137 -13 0c-6,0 -11,1 -15,3 -5,1 -8,3 -11,5 -4,4 -7,8 -9,13 -3,5 -4,11 -5,17l-5 0 0 -48 158 0z"/>
    <path id="10" class="fil1" d="M5777 1532l0 48 -5 0c-1,-5 -3,-10 -4,-14 -2,-4 -3,-7 -5,-10 -2,-2 -4,-4 -6,-6 -2,-2 -5,-4 -8,-5 -2,-1 -4,-2 -7,-2 -3,0 -6,0 -10,0l-13 -1 0 136c0,5 0,9 0,12 0,3 0,5 1,6 0,1 1,2 2,3 1,1 2,2 4,3 1,0 3,1 5,1 2,1 4,1 7,1l6 0 0 5 -93 0 0 -5 6 0c3,0 5,0 7,-1 2,0 4,-1 6,-2 1,0 2,-1 2,-2 1,-1 2,-2 3,-4 0,-1 1,-3 1,-5 0,-3 0,-7 0,-11l0 -137 -13 0c-6,0 -11,1 -15,3 -4,1 -8,3 -10,5 -4,4 -7,8 -10,13 -2,5 -4,11 -5,17l-5 0 0 -48 159 0z"/>
    <path id="11" class="fil1" d="M5978 1542l0 72 4 0c6,0 11,0 15,-2 4,-2 7,-5 9,-8 3,-4 5,-8 6,-13 2,-5 3,-11 4,-18l5 0 0 92 -5 0c0,-5 -1,-9 -2,-13 -2,-5 -3,-8 -5,-11 -1,-4 -3,-6 -5,-8 -2,-3 -4,-4 -6,-5 -2,-1 -5,-2 -8,-3 -4,0 -7,-1 -12,-1l0 50c0,5 1,9 1,12 0,3 0,5 1,6 0,1 1,2 1,3 1,1 2,1 3,2 1,1 3,1 5,2 2,0 4,0 6,0l11 0c8,0 15,-1 22,-3 7,-1 12,-4 17,-8 5,-4 10,-9 13,-15 4,-5 7,-12 9,-20l5 0 -8 56 -153 0 0 -5 6 0c2,0 5,0 7,-1 2,0 4,-1 5,-2 2,0 2,-1 3,-2 1,-1 2,-2 3,-4 0,-1 0,-3 1,-5 0,-3 0,-7 0,-11l0 -116c0,-4 0,-8 0,-10 0,-2 0,-4 -1,-5 0,-2 -1,-3 -2,-4 0,-1 -1,-2 -2,-3 -2,-1 -4,-2 -6,-3 -2,0 -5,-1 -8,-1l-6 0 0 -5 148 0 0 52 -5 0c-1,-6 -3,-11 -5,-16 -1,-4 -3,-8 -6,-11 -2,-3 -5,-5 -8,-7 -3,-2 -7,-4 -11,-5 -2,-1 -6,-2 -10,-2 -5,0 -11,0 -17,0l-19 -1z"/>
    <path id="12" class="fil1" d="M6274 1628l0 50c0,5 0,9 0,12 1,3 1,5 2,6 0,1 1,2 2,3 1,1 2,2 4,3 1,1 3,1 6,2 3,0 6,0 10,0l0 5 -90 0 0 -5c4,0 8,0 10,0 3,-1 5,-1 7,-2 1,-1 2,-2 3,-3 1,-1 2,-2 3,-3 0,-1 1,-3 1,-6 0,-3 1,-7 1,-12l0 -115c0,-4 -1,-8 -1,-11 0,-3 -1,-5 -1,-6 -1,-2 -2,-3 -3,-4 -1,-1 -2,-2 -3,-2 -2,-1 -4,-2 -7,-2 -2,-1 -6,-1 -10,-1l0 -5 82 0c11,0 20,1 28,2 7,0 14,2 19,3 5,1 9,3 13,6 4,3 8,6 11,10 3,4 6,8 7,13 2,5 2,10 2,15 0,7 -1,13 -3,18 -2,5 -6,10 -11,14 -3,3 -6,5 -10,8 -5,2 -10,3 -15,5l43 59c2,4 5,7 7,10 2,2 3,4 4,5 2,1 4,2 6,3 2,1 4,1 7,1l0 5 -56 0 -56 -81 -12 0zm0 -86l0 77 7 0c6,0 12,0 16,0 5,-1 8,-2 11,-3 4,-1 6,-3 8,-5 3,-2 5,-4 6,-7 2,-3 3,-6 4,-10 1,-4 2,-8 2,-13 0,-6 -1,-12 -3,-17 -1,-5 -4,-9 -7,-12 -3,-4 -7,-6 -12,-8 -5,-1 -11,-2 -18,-2l-14 0z"/>
    <path id="13" class="fil1" d="M6908 1532l0 5c-2,0 -3,1 -5,1 -1,1 -2,1 -4,2 -1,1 -2,2 -3,3 -1,1 -2,3 -3,4 0,1 0,3 -2,6 -1,3 -3,8 -6,14l-55 146 -5 0 -44 -114 -48 114 -5 0 -58 -144c-3,-7 -5,-13 -7,-18 -2,-4 -4,-7 -5,-8 -1,-2 -3,-3 -5,-4 -2,-1 -4,-2 -7,-2l0 -5 76 0 0 5c-3,0 -5,1 -7,1 -2,1 -4,1 -5,2 -1,1 -1,2 -2,3 -1,1 -1,2 -1,4 0,1 1,4 2,7 1,4 2,8 5,13l34 86 28 -67 -7 -19c-2,-5 -4,-9 -6,-12 -1,-4 -2,-6 -4,-8 -1,-2 -2,-3 -3,-5 -1,-1 -3,-2 -4,-2 -1,-1 -3,-2 -5,-2 -2,-1 -5,-1 -8,-1l0 -5 86 0 0 5c-3,0 -6,1 -8,1 -2,0 -4,0 -5,1 -1,0 -2,0 -2,1 -1,0 -2,1 -2,2 -1,0 -1,1 -2,2 0,1 0,2 0,3 0,1 1,3 2,6 1,3 2,7 4,12l32 83 29 -75c1,-4 3,-7 4,-10 1,-3 1,-5 2,-6 0,-1 0,-2 0,-3 0,-1 0,-1 0,-2 1,-1 1,-1 1,-2 0,0 0,-1 0,-1 0,-2 -1,-3 -1,-5 -1,-1 -2,-2 -3,-3 -1,-1 -3,-2 -5,-3 -3,0 -5,-1 -9,-1l0 -5 46 0z"/>
    <path id="14" class="fil1" d="M7133 1530c14,-1 27,1 38,5 12,4 22,11 30,20 9,8 16,18 20,29 5,11 7,23 7,36 0,11 -2,22 -5,32 -3,10 -8,19 -15,27 -9,11 -19,20 -31,25 -13,6 -27,9 -43,9 -16,0 -30,-3 -42,-8 -12,-6 -23,-13 -31,-24 -7,-9 -12,-18 -16,-28 -3,-10 -5,-21 -5,-33 0,-13 3,-25 7,-36 5,-11 11,-20 20,-29 9,-9 19,-16 30,-20 11,-4 23,-5 36,-5l0 0zm1 8c-8,0 -15,2 -21,6 -6,5 -11,11 -16,19 -3,7 -5,15 -7,25 -2,10 -3,21 -3,33 0,16 2,29 4,40 3,11 7,20 12,27 4,5 8,9 13,11 6,3 12,4 18,4 5,0 9,0 12,-1 4,-1 8,-3 11,-5 3,-3 7,-7 10,-11 3,-5 5,-10 7,-16 2,-6 4,-13 5,-21 1,-8 2,-17 2,-26 0,-12 -1,-22 -2,-31 -1,-9 -3,-16 -5,-22 -2,-6 -4,-11 -7,-15 -3,-4 -6,-7 -9,-9 -4,-3 -7,-5 -11,-6 -4,-1 -8,-2 -13,-2l0 0z"/>
    <path id="15" class="fil1" d="M7427 1628l0 50c0,5 1,9 1,12 0,3 1,5 1,6 1,1 2,2 3,3 1,1 2,2 3,3 2,1 4,1 7,2 3,0 6,0 10,0l0 5 -90 0 0 -5c4,0 7,0 10,0 3,-1 5,-1 6,-2 2,-1 3,-2 4,-3 1,-1 2,-2 2,-3 1,-1 1,-3 2,-6 0,-3 0,-7 0,-12l0 -115c0,-4 0,-8 0,-11 -1,-3 -1,-5 -2,-6 0,-2 -1,-3 -2,-4 -1,-1 -2,-2 -4,-2 -1,-1 -3,-2 -6,-2 -3,-1 -6,-1 -10,-1l0 -5 82 0c10,0 20,1 27,2 8,0 14,2 19,3 5,1 10,3 14,6 4,3 8,6 11,10 3,4 5,8 7,13 1,5 2,10 2,15 0,7 -1,13 -4,18 -2,5 -5,10 -10,14 -3,3 -7,5 -11,8 -4,2 -9,3 -14,5l42 59c3,4 5,7 7,10 2,2 4,4 5,5 2,1 4,2 6,3 2,1 4,1 6,1l0 5 -55 0 -57 -81 -12 0zm0 -86l0 77 8 0c6,0 11,0 16,0 4,-1 8,-2 11,-3 3,-1 6,-3 8,-5 2,-2 4,-4 6,-7 2,-3 3,-6 4,-10 1,-4 1,-8 1,-13 0,-6 -1,-12 -2,-17 -2,-5 -4,-9 -7,-12 -3,-4 -7,-6 -12,-8 -6,-1 -12,-2 -19,-2l-14 0z"/>
    <path id="16" class="fil1" d="M7837 1647l-7 62 -156 0 0 -5 6 0c2,0 4,0 6,-1 2,0 4,-1 6,-2 1,0 2,-1 3,-2 1,-1 2,-2 2,-4 1,-1 1,-3 1,-5 0,-3 1,-7 1,-11l0 -116c0,-5 -1,-8 -1,-11 0,-3 0,-5 -1,-6 0,-1 -1,-2 -2,-3 -1,-1 -2,-2 -4,-3 -1,-1 -3,-2 -5,-2 -2,-1 -4,-1 -6,-1l-6 0 0 -5 94 0 0 5 -8 0c-3,0 -5,1 -7,1 -2,1 -4,1 -5,2 -1,1 -2,2 -3,3 -1,1 -2,2 -2,3 -1,1 -1,3 -2,6 0,3 0,6 0,11l0 112c0,5 0,8 0,11 1,3 1,5 2,6 0,2 1,3 2,4 1,0 2,1 4,2 1,0 3,1 5,1 3,0 6,0 10,0l15 0c5,0 9,0 13,-1 4,-1 7,-2 10,-4 4,-2 7,-4 9,-6 3,-3 5,-6 8,-10 2,-3 4,-7 7,-13 2,-5 4,-11 6,-18l5 0z"/>
    <path id="17" class="fil1" d="M7970 1709l0 -5 6 0c2,0 4,0 6,-1 2,0 4,-1 5,-1 2,-1 3,-2 4,-3 1,-1 2,-2 2,-4 1,-1 1,-2 1,-5 0,-3 0,-7 0,-11l0 -116c0,-5 0,-8 0,-11 0,-3 -1,-5 -1,-6 0,-1 -1,-2 -2,-3 -1,-1 -2,-2 -4,-3 -1,-1 -3,-2 -5,-2 -2,-1 -4,-1 -6,-1l-6 0 0 -5 79 0c10,0 20,1 28,3 9,1 16,3 22,6 8,4 15,8 21,13 6,6 11,12 15,19 4,7 7,15 9,23 2,8 3,16 3,25 0,6 0,12 -1,18 -1,6 -3,11 -5,17 -2,5 -4,9 -7,14 -2,4 -5,8 -8,11 -3,4 -7,7 -10,10 -4,2 -8,5 -12,7 -4,2 -9,4 -14,5 -5,2 -10,3 -16,5 -3,0 -7,0 -11,0 -4,1 -9,1 -14,1l-79 0zm67 -167l0 138c0,4 0,7 0,9 0,2 1,4 1,5 0,0 1,1 1,2 1,1 2,1 2,1 1,1 3,2 4,2 2,0 4,0 6,0 8,0 14,-1 20,-3 5,-3 10,-6 14,-11 5,-7 9,-16 11,-26 3,-11 4,-23 4,-37 0,-11 -1,-21 -2,-30 -2,-9 -5,-17 -8,-24 -3,-5 -6,-10 -10,-13 -4,-4 -8,-7 -12,-8 -3,-2 -7,-3 -13,-3 -5,-1 -11,-1 -18,-1l0 -1z"/>
    <line class="fil2 str0" x1="2327" y1="1428" x2="8148" y2= "1428" />
    <line class="fil2 str0" x1="2327" y1="1801" x2="8148" y2= "1801" />
   </g>
   <rect class="fil2" width="8355" height="2379"/>
  </g>
 </g>
</svg>
